<mxfile host="Electron" agent="Mozilla/5.0 (X11; Linux x86_64) AppleWebKit/537.36 (KHTML, like Gecko) draw.io/25.0.1 Chrome/128.0.6613.186 Electron/32.2.6 Safari/537.36" version="25.0.1">
  <diagram name="Page-1" id="XAGtNkshWDV9DZCTP_Yn">
    <mxGraphModel dx="1581" dy="1187" grid="0" gridSize="10" guides="1" tooltips="1" connect="1" arrows="1" fold="1" page="0" pageScale="1" pageWidth="850" pageHeight="1100" math="0" shadow="0">
      <root>
        <mxCell id="0" />
        <mxCell id="1" parent="0" />
        <mxCell id="d_JDDHmGyynqykljBrvN-1" value="" style="endArrow=none;html=1;rounded=0;dashed=1;dashPattern=8 8;" parent="1" edge="1">
          <mxGeometry width="50" height="50" relative="1" as="geometry">
            <mxPoint x="545" y="916" as="sourcePoint" />
            <mxPoint x="545" y="-82" as="targetPoint" />
          </mxGeometry>
        </mxCell>
        <mxCell id="d_JDDHmGyynqykljBrvN-4" value="Fetch" style="text;html=1;align=center;verticalAlign=middle;whiteSpace=wrap;rounded=0;" parent="1" vertex="1">
          <mxGeometry x="215" y="23" width="60" height="30" as="geometry" />
        </mxCell>
        <mxCell id="d_JDDHmGyynqykljBrvN-5" value="Decode" style="text;html=1;align=center;verticalAlign=middle;whiteSpace=wrap;rounded=0;" parent="1" vertex="1">
          <mxGeometry x="674" y="-55" width="60" height="30" as="geometry" />
        </mxCell>
        <mxCell id="d_JDDHmGyynqykljBrvN-6" value="" style="endArrow=none;html=1;rounded=0;dashed=1;dashPattern=8 8;" parent="1" edge="1">
          <mxGeometry width="50" height="50" relative="1" as="geometry">
            <mxPoint x="1029" y="946.29" as="sourcePoint" />
            <mxPoint x="1029" y="-88" as="targetPoint" />
          </mxGeometry>
        </mxCell>
        <mxCell id="d_JDDHmGyynqykljBrvN-7" value="ALU" style="text;html=1;align=center;verticalAlign=middle;whiteSpace=wrap;rounded=0;" parent="1" vertex="1">
          <mxGeometry x="1135" y="-55" width="60" height="30" as="geometry" />
        </mxCell>
        <mxCell id="e9a1FzbA3gTjQ1UGh1gj-2" value="" style="group" parent="1" vertex="1" connectable="0">
          <mxGeometry x="473" y="240" width="43" height="70" as="geometry" />
        </mxCell>
        <mxCell id="e9a1FzbA3gTjQ1UGh1gj-3" value="" style="group" parent="e9a1FzbA3gTjQ1UGh1gj-2" vertex="1" connectable="0">
          <mxGeometry width="43" height="70" as="geometry" />
        </mxCell>
        <mxCell id="e9a1FzbA3gTjQ1UGh1gj-4" value="&lt;div&gt;Instr&lt;span style=&quot;background-color: initial;&quot;&gt;.&lt;/span&gt;&lt;/div&gt;&lt;div&gt;&lt;span style=&quot;background-color: initial;&quot;&gt;32&lt;/span&gt;&lt;/div&gt;&lt;div&gt;&lt;br&gt;&lt;/div&gt;" style="rounded=0;whiteSpace=wrap;html=1;" parent="e9a1FzbA3gTjQ1UGh1gj-3" vertex="1">
          <mxGeometry width="43" height="70" as="geometry" />
        </mxCell>
        <mxCell id="e9a1FzbA3gTjQ1UGh1gj-5" value="" style="triangle;whiteSpace=wrap;html=1;rotation=-90;" parent="e9a1FzbA3gTjQ1UGh1gj-3" vertex="1">
          <mxGeometry x="10.25" y="37" width="22.5" height="43" as="geometry" />
        </mxCell>
        <mxCell id="e9a1FzbA3gTjQ1UGh1gj-15" style="edgeStyle=orthogonalEdgeStyle;rounded=0;orthogonalLoop=1;jettySize=auto;html=1;" parent="1" source="e9a1FzbA3gTjQ1UGh1gj-6" target="e9a1FzbA3gTjQ1UGh1gj-12" edge="1">
          <mxGeometry relative="1" as="geometry" />
        </mxCell>
        <mxCell id="e9a1FzbA3gTjQ1UGh1gj-6" value="I Mem" style="whiteSpace=wrap;html=1;aspect=fixed;" parent="1" vertex="1">
          <mxGeometry x="63" y="244.5" width="61" height="61" as="geometry" />
        </mxCell>
        <mxCell id="e9a1FzbA3gTjQ1UGh1gj-10" value="" style="group" parent="1" vertex="1" connectable="0">
          <mxGeometry x="171" y="247.5" width="33" height="55" as="geometry" />
        </mxCell>
        <mxCell id="e9a1FzbA3gTjQ1UGh1gj-11" value="" style="group" parent="e9a1FzbA3gTjQ1UGh1gj-10" vertex="1" connectable="0">
          <mxGeometry width="33" height="55" as="geometry" />
        </mxCell>
        <mxCell id="e9a1FzbA3gTjQ1UGh1gj-12" value="&lt;div&gt;&lt;br&gt;&lt;/div&gt;" style="rounded=0;whiteSpace=wrap;html=1;" parent="e9a1FzbA3gTjQ1UGh1gj-11" vertex="1">
          <mxGeometry width="33" height="55" as="geometry" />
        </mxCell>
        <mxCell id="e9a1FzbA3gTjQ1UGh1gj-13" value="" style="triangle;whiteSpace=wrap;html=1;rotation=0;" parent="e9a1FzbA3gTjQ1UGh1gj-11" vertex="1">
          <mxGeometry width="25" height="54.21" as="geometry" />
        </mxCell>
        <mxCell id="e9a1FzbA3gTjQ1UGh1gj-16" style="edgeStyle=orthogonalEdgeStyle;rounded=0;orthogonalLoop=1;jettySize=auto;html=1;" parent="1" source="d_JDDHmGyynqykljBrvN-8" target="e9a1FzbA3gTjQ1UGh1gj-12" edge="1">
          <mxGeometry relative="1" as="geometry" />
        </mxCell>
        <mxCell id="e9a1FzbA3gTjQ1UGh1gj-17" style="edgeStyle=orthogonalEdgeStyle;rounded=0;orthogonalLoop=1;jettySize=auto;html=1;entryX=0;entryY=0.5;entryDx=0;entryDy=0;" parent="1" source="e9a1FzbA3gTjQ1UGh1gj-12" target="e9a1FzbA3gTjQ1UGh1gj-4" edge="1">
          <mxGeometry relative="1" as="geometry" />
        </mxCell>
        <mxCell id="e9a1FzbA3gTjQ1UGh1gj-19" value="" style="group;rotation=90;" parent="1" vertex="1" connectable="0">
          <mxGeometry x="473" y="586.6" width="43" height="70" as="geometry" />
        </mxCell>
        <mxCell id="e9a1FzbA3gTjQ1UGh1gj-20" value="" style="group" parent="e9a1FzbA3gTjQ1UGh1gj-19" vertex="1" connectable="0">
          <mxGeometry width="43" height="70" as="geometry" />
        </mxCell>
        <mxCell id="e9a1FzbA3gTjQ1UGh1gj-21" value="&lt;div&gt;RF&lt;/div&gt;&lt;div&gt;32*32&lt;/div&gt;&lt;div&gt;&lt;br&gt;&lt;/div&gt;" style="rounded=0;whiteSpace=wrap;html=1;" parent="e9a1FzbA3gTjQ1UGh1gj-20" vertex="1">
          <mxGeometry width="43" height="70" as="geometry" />
        </mxCell>
        <mxCell id="e9a1FzbA3gTjQ1UGh1gj-22" value="" style="triangle;whiteSpace=wrap;html=1;rotation=-90;" parent="e9a1FzbA3gTjQ1UGh1gj-20" vertex="1">
          <mxGeometry x="10.25" y="37" width="22.5" height="43" as="geometry" />
        </mxCell>
        <mxCell id="e9a1FzbA3gTjQ1UGh1gj-23" value="r_d_a" style="edgeStyle=orthogonalEdgeStyle;rounded=0;orthogonalLoop=1;jettySize=auto;html=1;exitX=1;exitY=0;exitDx=0;exitDy=0;" parent="1" source="e9a1FzbA3gTjQ1UGh1gj-4" target="e9a1FzbA3gTjQ1UGh1gj-29" edge="1">
          <mxGeometry x="-0.1422" relative="1" as="geometry">
            <mxPoint x="685" y="193" as="targetPoint" />
            <Array as="points">
              <mxPoint x="695" y="240" />
              <mxPoint x="695" y="111" />
            </Array>
            <mxPoint as="offset" />
          </mxGeometry>
        </mxCell>
        <mxCell id="e9a1FzbA3gTjQ1UGh1gj-35" value="r_a_a" style="edgeStyle=orthogonalEdgeStyle;rounded=0;orthogonalLoop=1;jettySize=auto;html=1;" parent="1" source="e9a1FzbA3gTjQ1UGh1gj-4" target="e9a1FzbA3gTjQ1UGh1gj-33" edge="1">
          <mxGeometry x="0.7206" relative="1" as="geometry">
            <mxPoint as="offset" />
          </mxGeometry>
        </mxCell>
        <mxCell id="e9a1FzbA3gTjQ1UGh1gj-40" value="r_b_a" style="edgeStyle=orthogonalEdgeStyle;rounded=0;orthogonalLoop=1;jettySize=auto;html=1;exitX=1;exitY=0.75;exitDx=0;exitDy=0;entryX=0.5;entryY=0;entryDx=0;entryDy=0;" parent="1" source="e9a1FzbA3gTjQ1UGh1gj-4" target="e9a1FzbA3gTjQ1UGh1gj-38" edge="1">
          <mxGeometry x="0.8505" relative="1" as="geometry">
            <mxPoint as="offset" />
            <mxPoint x="630.0525000000002" y="541.6050000000002" as="targetPoint" />
          </mxGeometry>
        </mxCell>
        <mxCell id="e9a1FzbA3gTjQ1UGh1gj-57" style="edgeStyle=orthogonalEdgeStyle;rounded=0;orthogonalLoop=1;jettySize=auto;html=1;entryX=0;entryY=0.5;entryDx=0;entryDy=0;" parent="1" target="e9a1FzbA3gTjQ1UGh1gj-50" edge="1">
          <mxGeometry relative="1" as="geometry">
            <mxPoint x="829" y="256" as="sourcePoint" />
            <Array as="points">
              <mxPoint x="866" y="260" />
              <mxPoint x="866" y="288" />
            </Array>
          </mxGeometry>
        </mxCell>
        <mxCell id="e9a1FzbA3gTjQ1UGh1gj-68" style="edgeStyle=orthogonalEdgeStyle;rounded=0;orthogonalLoop=1;jettySize=auto;html=1;exitX=0.763;exitY=0.795;exitDx=0;exitDy=0;exitPerimeter=0;" parent="1" source="e9a1FzbA3gTjQ1UGh1gj-25" target="e9a1FzbA3gTjQ1UGh1gj-54" edge="1">
          <mxGeometry relative="1" as="geometry">
            <Array as="points">
              <mxPoint x="840" y="272" />
              <mxPoint x="840" y="366" />
            </Array>
          </mxGeometry>
        </mxCell>
        <mxCell id="e9a1FzbA3gTjQ1UGh1gj-69" style="edgeStyle=orthogonalEdgeStyle;rounded=0;orthogonalLoop=1;jettySize=auto;html=1;exitX=0.55;exitY=0.95;exitDx=0;exitDy=0;exitPerimeter=0;" parent="1" source="e9a1FzbA3gTjQ1UGh1gj-25" target="e9a1FzbA3gTjQ1UGh1gj-62" edge="1">
          <mxGeometry relative="1" as="geometry">
            <Array as="points">
              <mxPoint x="822" y="453" />
            </Array>
          </mxGeometry>
        </mxCell>
        <mxCell id="e9a1FzbA3gTjQ1UGh1gj-70" style="edgeStyle=orthogonalEdgeStyle;rounded=0;orthogonalLoop=1;jettySize=auto;html=1;entryX=0;entryY=0.5;entryDx=0;entryDy=0;" parent="1" source="e9a1FzbA3gTjQ1UGh1gj-25" target="e9a1FzbA3gTjQ1UGh1gj-45" edge="1">
          <mxGeometry relative="1" as="geometry">
            <Array as="points">
              <mxPoint x="818" y="199" />
            </Array>
          </mxGeometry>
        </mxCell>
        <mxCell id="Ge6MpnjpsSB7cL12u8TX-7" value="offset" style="edgeStyle=orthogonalEdgeStyle;rounded=0;orthogonalLoop=1;jettySize=auto;html=1;entryX=0;entryY=0.25;entryDx=0;entryDy=0;exitX=0.339;exitY=0.846;exitDx=0;exitDy=0;exitPerimeter=0;" parent="1" source="e9a1FzbA3gTjQ1UGh1gj-25" target="Ge6MpnjpsSB7cL12u8TX-83" edge="1">
          <mxGeometry x="-0.0388" relative="1" as="geometry">
            <mxPoint x="808" y="515" as="targetPoint" />
            <mxPoint x="808" y="278" as="sourcePoint" />
            <Array as="points">
              <mxPoint x="803" y="694" />
            </Array>
            <mxPoint as="offset" />
          </mxGeometry>
        </mxCell>
        <mxCell id="e9a1FzbA3gTjQ1UGh1gj-25" value="decode" style="ellipse;shape=cloud;whiteSpace=wrap;html=1;" parent="1" vertex="1">
          <mxGeometry x="772" y="235" width="91" height="46" as="geometry" />
        </mxCell>
        <mxCell id="e9a1FzbA3gTjQ1UGh1gj-26" style="edgeStyle=orthogonalEdgeStyle;rounded=0;orthogonalLoop=1;jettySize=auto;html=1;exitX=1;exitY=0.25;exitDx=0;exitDy=0;" parent="1" source="e9a1FzbA3gTjQ1UGh1gj-4" target="e9a1FzbA3gTjQ1UGh1gj-25" edge="1">
          <mxGeometry relative="1" as="geometry" />
        </mxCell>
        <mxCell id="e9a1FzbA3gTjQ1UGh1gj-27" value="" style="group" parent="1" vertex="1" connectable="0">
          <mxGeometry x="953" y="74" width="43" height="70" as="geometry" />
        </mxCell>
        <mxCell id="e9a1FzbA3gTjQ1UGh1gj-28" value="" style="group" parent="e9a1FzbA3gTjQ1UGh1gj-27" vertex="1" connectable="0">
          <mxGeometry width="43" height="70" as="geometry" />
        </mxCell>
        <mxCell id="e9a1FzbA3gTjQ1UGh1gj-29" value="&lt;div&gt;r_d_a&lt;/div&gt;&lt;div&gt;5&lt;/div&gt;&lt;div&gt;&lt;br&gt;&lt;/div&gt;" style="rounded=0;whiteSpace=wrap;html=1;" parent="e9a1FzbA3gTjQ1UGh1gj-28" vertex="1">
          <mxGeometry width="43" height="70" as="geometry" />
        </mxCell>
        <mxCell id="e9a1FzbA3gTjQ1UGh1gj-30" value="" style="triangle;whiteSpace=wrap;html=1;rotation=-90;" parent="e9a1FzbA3gTjQ1UGh1gj-28" vertex="1">
          <mxGeometry x="10.25" y="37" width="22.5" height="43" as="geometry" />
        </mxCell>
        <mxCell id="e9a1FzbA3gTjQ1UGh1gj-31" value="" style="group" parent="1" vertex="1" connectable="0">
          <mxGeometry x="670" y="594.5" width="33" height="55" as="geometry" />
        </mxCell>
        <mxCell id="e9a1FzbA3gTjQ1UGh1gj-32" value="" style="group" parent="e9a1FzbA3gTjQ1UGh1gj-31" vertex="1" connectable="0">
          <mxGeometry width="33" height="55" as="geometry" />
        </mxCell>
        <mxCell id="e9a1FzbA3gTjQ1UGh1gj-33" value="&lt;div&gt;&lt;br&gt;&lt;/div&gt;" style="rounded=0;whiteSpace=wrap;html=1;" parent="e9a1FzbA3gTjQ1UGh1gj-32" vertex="1">
          <mxGeometry x="14" width="33" height="55" as="geometry" />
        </mxCell>
        <mxCell id="e9a1FzbA3gTjQ1UGh1gj-34" value="" style="triangle;whiteSpace=wrap;html=1;rotation=0;" parent="e9a1FzbA3gTjQ1UGh1gj-32" vertex="1">
          <mxGeometry x="13" width="25" height="54.21" as="geometry" />
        </mxCell>
        <mxCell id="e9a1FzbA3gTjQ1UGh1gj-36" value="" style="group" parent="1" vertex="1" connectable="0">
          <mxGeometry x="568" y="680.5" width="33" height="55" as="geometry" />
        </mxCell>
        <mxCell id="e9a1FzbA3gTjQ1UGh1gj-37" value="" style="group" parent="e9a1FzbA3gTjQ1UGh1gj-36" vertex="1" connectable="0">
          <mxGeometry width="33" height="55" as="geometry" />
        </mxCell>
        <mxCell id="e9a1FzbA3gTjQ1UGh1gj-38" value="&lt;div&gt;&lt;br&gt;&lt;/div&gt;" style="rounded=0;whiteSpace=wrap;html=1;" parent="e9a1FzbA3gTjQ1UGh1gj-37" vertex="1">
          <mxGeometry x="32" width="33" height="55" as="geometry" />
        </mxCell>
        <mxCell id="e9a1FzbA3gTjQ1UGh1gj-39" value="" style="triangle;whiteSpace=wrap;html=1;rotation=0;" parent="e9a1FzbA3gTjQ1UGh1gj-37" vertex="1">
          <mxGeometry x="31" width="25" height="54.21" as="geometry" />
        </mxCell>
        <mxCell id="e9a1FzbA3gTjQ1UGh1gj-41" style="edgeStyle=orthogonalEdgeStyle;rounded=0;orthogonalLoop=1;jettySize=auto;html=1;" parent="1" source="e9a1FzbA3gTjQ1UGh1gj-21" target="e9a1FzbA3gTjQ1UGh1gj-33" edge="1">
          <mxGeometry relative="1" as="geometry" />
        </mxCell>
        <mxCell id="e9a1FzbA3gTjQ1UGh1gj-42" style="edgeStyle=orthogonalEdgeStyle;rounded=0;orthogonalLoop=1;jettySize=auto;html=1;entryX=0;entryY=0.5;entryDx=0;entryDy=0;" parent="1" source="e9a1FzbA3gTjQ1UGh1gj-21" target="e9a1FzbA3gTjQ1UGh1gj-39" edge="1">
          <mxGeometry relative="1" as="geometry">
            <Array as="points">
              <mxPoint x="555" y="643" />
              <mxPoint x="555" y="708" />
              <mxPoint x="568" y="708" />
            </Array>
          </mxGeometry>
        </mxCell>
        <mxCell id="e9a1FzbA3gTjQ1UGh1gj-43" value="" style="group" parent="1" vertex="1" connectable="0">
          <mxGeometry x="953" y="164" width="43" height="70" as="geometry" />
        </mxCell>
        <mxCell id="e9a1FzbA3gTjQ1UGh1gj-44" value="" style="group" parent="e9a1FzbA3gTjQ1UGh1gj-43" vertex="1" connectable="0">
          <mxGeometry width="43" height="70" as="geometry" />
        </mxCell>
        <mxCell id="e9a1FzbA3gTjQ1UGh1gj-45" value="&lt;div&gt;w&lt;/div&gt;&lt;div&gt;1&lt;/div&gt;&lt;div&gt;&lt;br&gt;&lt;/div&gt;" style="rounded=0;whiteSpace=wrap;html=1;" parent="e9a1FzbA3gTjQ1UGh1gj-44" vertex="1">
          <mxGeometry width="43" height="70" as="geometry" />
        </mxCell>
        <mxCell id="e9a1FzbA3gTjQ1UGh1gj-46" value="" style="triangle;whiteSpace=wrap;html=1;rotation=-90;" parent="e9a1FzbA3gTjQ1UGh1gj-44" vertex="1">
          <mxGeometry x="10.25" y="37" width="22.5" height="43" as="geometry" />
        </mxCell>
        <mxCell id="e9a1FzbA3gTjQ1UGh1gj-48" value="" style="group" parent="1" vertex="1" connectable="0">
          <mxGeometry x="953" y="253" width="43" height="70" as="geometry" />
        </mxCell>
        <mxCell id="e9a1FzbA3gTjQ1UGh1gj-49" value="" style="group" parent="e9a1FzbA3gTjQ1UGh1gj-48" vertex="1" connectable="0">
          <mxGeometry width="43" height="70" as="geometry" />
        </mxCell>
        <mxCell id="e9a1FzbA3gTjQ1UGh1gj-50" value="&lt;div style=&quot;&quot;&gt;&lt;span style=&quot;background-color: initial;&quot;&gt;&lt;font style=&quot;font-size: 12px;&quot;&gt;is_load&lt;/font&gt;&lt;/span&gt;&lt;/div&gt;&lt;div style=&quot;&quot;&gt;&lt;font style=&quot;font-size: 12px;&quot;&gt;&lt;span style=&quot;background-color: initial;&quot;&gt;1&lt;/span&gt;&lt;br&gt;&lt;/font&gt;&lt;/div&gt;&lt;div style=&quot;&quot;&gt;&lt;br&gt;&lt;/div&gt;" style="rounded=0;whiteSpace=wrap;html=1;" parent="e9a1FzbA3gTjQ1UGh1gj-49" vertex="1">
          <mxGeometry width="43" height="70" as="geometry" />
        </mxCell>
        <mxCell id="e9a1FzbA3gTjQ1UGh1gj-51" value="" style="triangle;whiteSpace=wrap;html=1;rotation=-90;" parent="e9a1FzbA3gTjQ1UGh1gj-49" vertex="1">
          <mxGeometry x="10.25" y="37" width="22.5" height="43" as="geometry" />
        </mxCell>
        <mxCell id="e9a1FzbA3gTjQ1UGh1gj-52" value="" style="group;fontSize=11;" parent="1" vertex="1" connectable="0">
          <mxGeometry x="953" y="335.5" width="43" height="70" as="geometry" />
        </mxCell>
        <mxCell id="e9a1FzbA3gTjQ1UGh1gj-53" value="" style="group" parent="e9a1FzbA3gTjQ1UGh1gj-52" vertex="1" connectable="0">
          <mxGeometry width="43" height="70" as="geometry" />
        </mxCell>
        <mxCell id="e9a1FzbA3gTjQ1UGh1gj-54" value="&lt;div style=&quot;&quot;&gt;&lt;span style=&quot;background-color: initial;&quot;&gt;&lt;font style=&quot;font-size: 11px;&quot;&gt;is_store&lt;/font&gt;&lt;/span&gt;&lt;/div&gt;&lt;div style=&quot;&quot;&gt;&lt;font style=&quot;font-size: 12px;&quot;&gt;&lt;span style=&quot;background-color: initial;&quot;&gt;1&lt;/span&gt;&lt;br&gt;&lt;/font&gt;&lt;/div&gt;&lt;div style=&quot;&quot;&gt;&lt;br&gt;&lt;/div&gt;" style="rounded=0;whiteSpace=wrap;html=1;" parent="e9a1FzbA3gTjQ1UGh1gj-53" vertex="1">
          <mxGeometry width="43" height="70" as="geometry" />
        </mxCell>
        <mxCell id="e9a1FzbA3gTjQ1UGh1gj-55" value="" style="triangle;whiteSpace=wrap;html=1;rotation=-90;" parent="e9a1FzbA3gTjQ1UGh1gj-53" vertex="1">
          <mxGeometry x="10.25" y="37" width="22.5" height="43" as="geometry" />
        </mxCell>
        <mxCell id="e9a1FzbA3gTjQ1UGh1gj-60" value="" style="group;fontSize=11;" parent="1" vertex="1" connectable="0">
          <mxGeometry x="953" y="418" width="43" height="70" as="geometry" />
        </mxCell>
        <mxCell id="e9a1FzbA3gTjQ1UGh1gj-61" value="" style="group" parent="e9a1FzbA3gTjQ1UGh1gj-60" vertex="1" connectable="0">
          <mxGeometry width="43" height="70" as="geometry" />
        </mxCell>
        <mxCell id="e9a1FzbA3gTjQ1UGh1gj-62" value="&lt;div style=&quot;&quot;&gt;&lt;span style=&quot;background-color: initial;&quot;&gt;&lt;font style=&quot;font-size: 12px;&quot;&gt;func&lt;/font&gt;&lt;/span&gt;&lt;/div&gt;&lt;div style=&quot;&quot;&gt;3&lt;/div&gt;&lt;div style=&quot;&quot;&gt;&lt;br&gt;&lt;/div&gt;" style="rounded=0;whiteSpace=wrap;html=1;" parent="e9a1FzbA3gTjQ1UGh1gj-61" vertex="1">
          <mxGeometry width="43" height="70" as="geometry" />
        </mxCell>
        <mxCell id="e9a1FzbA3gTjQ1UGh1gj-63" value="" style="triangle;whiteSpace=wrap;html=1;rotation=-90;" parent="e9a1FzbA3gTjQ1UGh1gj-61" vertex="1">
          <mxGeometry x="10.25" y="37" width="22.5" height="43" as="geometry" />
        </mxCell>
        <mxCell id="e9a1FzbA3gTjQ1UGh1gj-71" value="" style="group;fontSize=11;" parent="1" vertex="1" connectable="0">
          <mxGeometry x="953" y="587" width="43" height="70" as="geometry" />
        </mxCell>
        <mxCell id="e9a1FzbA3gTjQ1UGh1gj-72" value="" style="group" parent="e9a1FzbA3gTjQ1UGh1gj-71" vertex="1" connectable="0">
          <mxGeometry width="43" height="70" as="geometry" />
        </mxCell>
        <mxCell id="e9a1FzbA3gTjQ1UGh1gj-73" value="&lt;div style=&quot;&quot;&gt;r_a&lt;/div&gt;&lt;div style=&quot;&quot;&gt;32&lt;/div&gt;&lt;div style=&quot;&quot;&gt;&lt;br&gt;&lt;/div&gt;" style="rounded=0;whiteSpace=wrap;html=1;" parent="e9a1FzbA3gTjQ1UGh1gj-72" vertex="1">
          <mxGeometry width="43" height="70" as="geometry" />
        </mxCell>
        <mxCell id="e9a1FzbA3gTjQ1UGh1gj-74" value="" style="triangle;whiteSpace=wrap;html=1;rotation=-90;" parent="e9a1FzbA3gTjQ1UGh1gj-72" vertex="1">
          <mxGeometry x="10.25" y="37" width="22.5" height="43" as="geometry" />
        </mxCell>
        <mxCell id="e9a1FzbA3gTjQ1UGh1gj-75" value="" style="group;fontSize=11;" parent="1" vertex="1" connectable="0">
          <mxGeometry x="953" y="673" width="43" height="70" as="geometry" />
        </mxCell>
        <mxCell id="e9a1FzbA3gTjQ1UGh1gj-76" value="" style="group" parent="e9a1FzbA3gTjQ1UGh1gj-75" vertex="1" connectable="0">
          <mxGeometry width="43" height="70" as="geometry" />
        </mxCell>
        <mxCell id="e9a1FzbA3gTjQ1UGh1gj-77" value="&lt;div style=&quot;&quot;&gt;r_b&lt;/div&gt;&lt;div style=&quot;&quot;&gt;32&lt;/div&gt;&lt;div style=&quot;&quot;&gt;&lt;br&gt;&lt;/div&gt;" style="rounded=0;whiteSpace=wrap;html=1;" parent="e9a1FzbA3gTjQ1UGh1gj-76" vertex="1">
          <mxGeometry width="43" height="70" as="geometry" />
        </mxCell>
        <mxCell id="e9a1FzbA3gTjQ1UGh1gj-78" value="" style="triangle;whiteSpace=wrap;html=1;rotation=-90;" parent="e9a1FzbA3gTjQ1UGh1gj-76" vertex="1">
          <mxGeometry x="10.25" y="37" width="22.5" height="43" as="geometry" />
        </mxCell>
        <mxCell id="e9a1FzbA3gTjQ1UGh1gj-79" style="edgeStyle=orthogonalEdgeStyle;rounded=0;orthogonalLoop=1;jettySize=auto;html=1;" parent="1" source="e9a1FzbA3gTjQ1UGh1gj-33" target="e9a1FzbA3gTjQ1UGh1gj-73" edge="1">
          <mxGeometry relative="1" as="geometry" />
        </mxCell>
        <mxCell id="e9a1FzbA3gTjQ1UGh1gj-118" style="edgeStyle=orthogonalEdgeStyle;rounded=0;orthogonalLoop=1;jettySize=auto;html=1;" parent="1" source="e9a1FzbA3gTjQ1UGh1gj-82" target="e9a1FzbA3gTjQ1UGh1gj-110" edge="1">
          <mxGeometry relative="1" as="geometry" />
        </mxCell>
        <mxCell id="Ge6MpnjpsSB7cL12u8TX-78" style="edgeStyle=orthogonalEdgeStyle;rounded=0;orthogonalLoop=1;jettySize=auto;html=1;entryX=0;entryY=0.5;entryDx=0;entryDy=0;exitX=1;exitY=0.25;exitDx=0;exitDy=0;" parent="1" source="e9a1FzbA3gTjQ1UGh1gj-82" target="Ge6MpnjpsSB7cL12u8TX-23" edge="1">
          <mxGeometry relative="1" as="geometry" />
        </mxCell>
        <mxCell id="e9a1FzbA3gTjQ1UGh1gj-82" value="ALU" style="rounded=0;whiteSpace=wrap;html=1;" parent="1" vertex="1">
          <mxGeometry x="1103" y="586" width="101" height="73" as="geometry" />
        </mxCell>
        <mxCell id="e9a1FzbA3gTjQ1UGh1gj-83" style="edgeStyle=orthogonalEdgeStyle;rounded=0;orthogonalLoop=1;jettySize=auto;html=1;entryX=0;entryY=0.5;entryDx=0;entryDy=0;" parent="1" source="e9a1FzbA3gTjQ1UGh1gj-73" target="e9a1FzbA3gTjQ1UGh1gj-82" edge="1">
          <mxGeometry relative="1" as="geometry" />
        </mxCell>
        <mxCell id="e9a1FzbA3gTjQ1UGh1gj-84" style="edgeStyle=orthogonalEdgeStyle;rounded=0;orthogonalLoop=1;jettySize=auto;html=1;entryX=0;entryY=0.75;entryDx=0;entryDy=0;" parent="1" source="e9a1FzbA3gTjQ1UGh1gj-77" target="e9a1FzbA3gTjQ1UGh1gj-82" edge="1">
          <mxGeometry relative="1" as="geometry" />
        </mxCell>
        <mxCell id="e9a1FzbA3gTjQ1UGh1gj-85" style="edgeStyle=orthogonalEdgeStyle;rounded=0;orthogonalLoop=1;jettySize=auto;html=1;" parent="1" source="e9a1FzbA3gTjQ1UGh1gj-62" target="e9a1FzbA3gTjQ1UGh1gj-82" edge="1">
          <mxGeometry relative="1" as="geometry" />
        </mxCell>
        <mxCell id="e9a1FzbA3gTjQ1UGh1gj-86" value="" style="endArrow=none;html=1;rounded=0;dashed=1;dashPattern=8 8;" parent="1" edge="1">
          <mxGeometry width="50" height="50" relative="1" as="geometry">
            <mxPoint x="1376" y="946.29" as="sourcePoint" />
            <mxPoint x="1376" y="-97" as="targetPoint" />
          </mxGeometry>
        </mxCell>
        <mxCell id="e9a1FzbA3gTjQ1UGh1gj-87" value="Cache" style="text;html=1;align=center;verticalAlign=middle;whiteSpace=wrap;rounded=0;" parent="1" vertex="1">
          <mxGeometry x="1894" y="-55" width="56" height="30" as="geometry" />
        </mxCell>
        <mxCell id="e9a1FzbA3gTjQ1UGh1gj-88" value="" style="group" parent="1" vertex="1" connectable="0">
          <mxGeometry x="1315" y="74" width="39" height="70" as="geometry" />
        </mxCell>
        <mxCell id="e9a1FzbA3gTjQ1UGh1gj-89" value="" style="group" parent="e9a1FzbA3gTjQ1UGh1gj-88" vertex="1" connectable="0">
          <mxGeometry width="43" height="70" as="geometry" />
        </mxCell>
        <mxCell id="e9a1FzbA3gTjQ1UGh1gj-90" value="&lt;div&gt;r_d_a&lt;/div&gt;&lt;div&gt;5&lt;/div&gt;&lt;div&gt;&lt;br&gt;&lt;/div&gt;" style="rounded=0;whiteSpace=wrap;html=1;" parent="e9a1FzbA3gTjQ1UGh1gj-89" vertex="1">
          <mxGeometry width="43" height="70" as="geometry" />
        </mxCell>
        <mxCell id="e9a1FzbA3gTjQ1UGh1gj-91" value="" style="triangle;whiteSpace=wrap;html=1;rotation=-90;" parent="e9a1FzbA3gTjQ1UGh1gj-89" vertex="1">
          <mxGeometry x="10.25" y="37" width="22.5" height="43" as="geometry" />
        </mxCell>
        <mxCell id="e9a1FzbA3gTjQ1UGh1gj-92" value="" style="group" parent="1" vertex="1" connectable="0">
          <mxGeometry x="1315" y="164" width="39" height="70" as="geometry" />
        </mxCell>
        <mxCell id="e9a1FzbA3gTjQ1UGh1gj-93" value="" style="group" parent="e9a1FzbA3gTjQ1UGh1gj-92" vertex="1" connectable="0">
          <mxGeometry width="43" height="70" as="geometry" />
        </mxCell>
        <mxCell id="e9a1FzbA3gTjQ1UGh1gj-94" value="&lt;div&gt;w&lt;/div&gt;&lt;div&gt;1&lt;/div&gt;&lt;div&gt;&lt;br&gt;&lt;/div&gt;" style="rounded=0;whiteSpace=wrap;html=1;" parent="e9a1FzbA3gTjQ1UGh1gj-93" vertex="1">
          <mxGeometry width="43" height="70" as="geometry" />
        </mxCell>
        <mxCell id="e9a1FzbA3gTjQ1UGh1gj-95" value="" style="triangle;whiteSpace=wrap;html=1;rotation=-90;" parent="e9a1FzbA3gTjQ1UGh1gj-93" vertex="1">
          <mxGeometry x="10.25" y="37" width="22.5" height="43" as="geometry" />
        </mxCell>
        <mxCell id="e9a1FzbA3gTjQ1UGh1gj-96" value="" style="group" parent="1" vertex="1" connectable="0">
          <mxGeometry x="1315" y="253" width="39" height="70" as="geometry" />
        </mxCell>
        <mxCell id="e9a1FzbA3gTjQ1UGh1gj-97" value="" style="group" parent="e9a1FzbA3gTjQ1UGh1gj-96" vertex="1" connectable="0">
          <mxGeometry width="43" height="70" as="geometry" />
        </mxCell>
        <mxCell id="e9a1FzbA3gTjQ1UGh1gj-98" value="&lt;div style=&quot;&quot;&gt;&lt;span style=&quot;background-color: initial;&quot;&gt;&lt;font style=&quot;font-size: 12px;&quot;&gt;is_load&lt;/font&gt;&lt;/span&gt;&lt;/div&gt;&lt;div style=&quot;&quot;&gt;&lt;font style=&quot;font-size: 12px;&quot;&gt;&lt;span style=&quot;background-color: initial;&quot;&gt;1&lt;/span&gt;&lt;br&gt;&lt;/font&gt;&lt;/div&gt;&lt;div style=&quot;&quot;&gt;&lt;br&gt;&lt;/div&gt;" style="rounded=0;whiteSpace=wrap;html=1;" parent="e9a1FzbA3gTjQ1UGh1gj-97" vertex="1">
          <mxGeometry width="43" height="70" as="geometry" />
        </mxCell>
        <mxCell id="e9a1FzbA3gTjQ1UGh1gj-99" value="" style="triangle;whiteSpace=wrap;html=1;rotation=-90;" parent="e9a1FzbA3gTjQ1UGh1gj-97" vertex="1">
          <mxGeometry x="10.25" y="37" width="22.5" height="43" as="geometry" />
        </mxCell>
        <mxCell id="e9a1FzbA3gTjQ1UGh1gj-100" value="" style="group;fontSize=11;" parent="1" vertex="1" connectable="0">
          <mxGeometry x="1315" y="335.5" width="39" height="70" as="geometry" />
        </mxCell>
        <mxCell id="e9a1FzbA3gTjQ1UGh1gj-101" value="" style="group" parent="e9a1FzbA3gTjQ1UGh1gj-100" vertex="1" connectable="0">
          <mxGeometry width="43" height="70" as="geometry" />
        </mxCell>
        <mxCell id="e9a1FzbA3gTjQ1UGh1gj-102" value="&lt;div style=&quot;&quot;&gt;&lt;span style=&quot;background-color: initial;&quot;&gt;&lt;font style=&quot;font-size: 11px;&quot;&gt;is_store&lt;/font&gt;&lt;/span&gt;&lt;/div&gt;&lt;div style=&quot;&quot;&gt;&lt;font style=&quot;font-size: 12px;&quot;&gt;&lt;span style=&quot;background-color: initial;&quot;&gt;1&lt;/span&gt;&lt;br&gt;&lt;/font&gt;&lt;/div&gt;&lt;div style=&quot;&quot;&gt;&lt;br&gt;&lt;/div&gt;" style="rounded=0;whiteSpace=wrap;html=1;" parent="e9a1FzbA3gTjQ1UGh1gj-101" vertex="1">
          <mxGeometry width="43" height="70" as="geometry" />
        </mxCell>
        <mxCell id="e9a1FzbA3gTjQ1UGh1gj-103" value="" style="triangle;whiteSpace=wrap;html=1;rotation=-90;" parent="e9a1FzbA3gTjQ1UGh1gj-101" vertex="1">
          <mxGeometry x="10.25" y="37" width="22.5" height="43" as="geometry" />
        </mxCell>
        <mxCell id="e9a1FzbA3gTjQ1UGh1gj-104" style="edgeStyle=orthogonalEdgeStyle;rounded=0;orthogonalLoop=1;jettySize=auto;html=1;" parent="1" source="e9a1FzbA3gTjQ1UGh1gj-29" target="e9a1FzbA3gTjQ1UGh1gj-90" edge="1">
          <mxGeometry relative="1" as="geometry" />
        </mxCell>
        <mxCell id="e9a1FzbA3gTjQ1UGh1gj-105" style="edgeStyle=orthogonalEdgeStyle;rounded=0;orthogonalLoop=1;jettySize=auto;html=1;" parent="1" source="e9a1FzbA3gTjQ1UGh1gj-45" target="e9a1FzbA3gTjQ1UGh1gj-94" edge="1">
          <mxGeometry relative="1" as="geometry" />
        </mxCell>
        <mxCell id="e9a1FzbA3gTjQ1UGh1gj-106" style="edgeStyle=orthogonalEdgeStyle;rounded=0;orthogonalLoop=1;jettySize=auto;html=1;" parent="1" source="e9a1FzbA3gTjQ1UGh1gj-50" target="e9a1FzbA3gTjQ1UGh1gj-98" edge="1">
          <mxGeometry relative="1" as="geometry" />
        </mxCell>
        <mxCell id="e9a1FzbA3gTjQ1UGh1gj-107" style="edgeStyle=orthogonalEdgeStyle;rounded=0;orthogonalLoop=1;jettySize=auto;html=1;" parent="1" source="e9a1FzbA3gTjQ1UGh1gj-54" target="e9a1FzbA3gTjQ1UGh1gj-102" edge="1">
          <mxGeometry relative="1" as="geometry" />
        </mxCell>
        <mxCell id="e9a1FzbA3gTjQ1UGh1gj-108" value="" style="group;fontSize=11;" parent="1" vertex="1" connectable="0">
          <mxGeometry x="1315" y="587.5" width="43" height="70" as="geometry" />
        </mxCell>
        <mxCell id="e9a1FzbA3gTjQ1UGh1gj-109" value="" style="group" parent="e9a1FzbA3gTjQ1UGh1gj-108" vertex="1" connectable="0">
          <mxGeometry width="43" height="70" as="geometry" />
        </mxCell>
        <mxCell id="e9a1FzbA3gTjQ1UGh1gj-110" value="&lt;div style=&quot;&quot;&gt;res&lt;/div&gt;&lt;div style=&quot;&quot;&gt;32&lt;/div&gt;&lt;div style=&quot;&quot;&gt;&lt;br&gt;&lt;/div&gt;" style="rounded=0;whiteSpace=wrap;html=1;" parent="e9a1FzbA3gTjQ1UGh1gj-109" vertex="1">
          <mxGeometry width="43" height="70" as="geometry" />
        </mxCell>
        <mxCell id="e9a1FzbA3gTjQ1UGh1gj-111" value="" style="triangle;whiteSpace=wrap;html=1;rotation=-90;" parent="e9a1FzbA3gTjQ1UGh1gj-109" vertex="1">
          <mxGeometry x="10.25" y="37" width="22.5" height="43" as="geometry" />
        </mxCell>
        <mxCell id="e9a1FzbA3gTjQ1UGh1gj-117" value="" style="endArrow=none;html=1;rounded=0;dashed=1;dashPattern=8 8;" parent="1" edge="1">
          <mxGeometry width="50" height="50" relative="1" as="geometry">
            <mxPoint x="2166" y="941.29" as="sourcePoint" />
            <mxPoint x="2166" y="53.004285714285714" as="targetPoint" />
          </mxGeometry>
        </mxCell>
        <mxCell id="e9a1FzbA3gTjQ1UGh1gj-124" value="" style="group" parent="1" vertex="1" connectable="0">
          <mxGeometry x="2222" y="482" width="33" height="55" as="geometry" />
        </mxCell>
        <mxCell id="e9a1FzbA3gTjQ1UGh1gj-125" value="" style="group" parent="e9a1FzbA3gTjQ1UGh1gj-124" vertex="1" connectable="0">
          <mxGeometry width="33" height="55" as="geometry" />
        </mxCell>
        <mxCell id="e9a1FzbA3gTjQ1UGh1gj-126" value="&lt;div&gt;&lt;br&gt;&lt;/div&gt;" style="rounded=0;whiteSpace=wrap;html=1;" parent="e9a1FzbA3gTjQ1UGh1gj-125" vertex="1">
          <mxGeometry width="33" height="55" as="geometry" />
        </mxCell>
        <mxCell id="e9a1FzbA3gTjQ1UGh1gj-127" value="" style="triangle;whiteSpace=wrap;html=1;rotation=-180;" parent="e9a1FzbA3gTjQ1UGh1gj-125" vertex="1">
          <mxGeometry x="8" y="0.39" width="25" height="54.21" as="geometry" />
        </mxCell>
        <mxCell id="e9a1FzbA3gTjQ1UGh1gj-130" value="" style="group" parent="1" vertex="1" connectable="0">
          <mxGeometry x="2107" y="74" width="39" height="70" as="geometry" />
        </mxCell>
        <mxCell id="e9a1FzbA3gTjQ1UGh1gj-131" value="" style="group" parent="e9a1FzbA3gTjQ1UGh1gj-130" vertex="1" connectable="0">
          <mxGeometry width="43" height="70" as="geometry" />
        </mxCell>
        <mxCell id="e9a1FzbA3gTjQ1UGh1gj-132" value="&lt;div&gt;r_d_a&lt;/div&gt;&lt;div&gt;5&lt;/div&gt;&lt;div&gt;&lt;br&gt;&lt;/div&gt;" style="rounded=0;whiteSpace=wrap;html=1;" parent="e9a1FzbA3gTjQ1UGh1gj-131" vertex="1">
          <mxGeometry width="43" height="70" as="geometry" />
        </mxCell>
        <mxCell id="e9a1FzbA3gTjQ1UGh1gj-133" value="" style="triangle;whiteSpace=wrap;html=1;rotation=-90;" parent="e9a1FzbA3gTjQ1UGh1gj-131" vertex="1">
          <mxGeometry x="10.25" y="37" width="22.5" height="43" as="geometry" />
        </mxCell>
        <mxCell id="e9a1FzbA3gTjQ1UGh1gj-134" value="" style="group" parent="1" vertex="1" connectable="0">
          <mxGeometry x="2107" y="164" width="39" height="70" as="geometry" />
        </mxCell>
        <mxCell id="e9a1FzbA3gTjQ1UGh1gj-135" value="" style="group" parent="e9a1FzbA3gTjQ1UGh1gj-134" vertex="1" connectable="0">
          <mxGeometry width="43" height="70" as="geometry" />
        </mxCell>
        <mxCell id="e9a1FzbA3gTjQ1UGh1gj-136" value="&lt;div&gt;w&lt;/div&gt;&lt;div&gt;1&lt;/div&gt;&lt;div&gt;&lt;br&gt;&lt;/div&gt;" style="rounded=0;whiteSpace=wrap;html=1;" parent="e9a1FzbA3gTjQ1UGh1gj-135" vertex="1">
          <mxGeometry width="43" height="70" as="geometry" />
        </mxCell>
        <mxCell id="e9a1FzbA3gTjQ1UGh1gj-137" value="" style="triangle;whiteSpace=wrap;html=1;rotation=-90;" parent="e9a1FzbA3gTjQ1UGh1gj-135" vertex="1">
          <mxGeometry x="10.25" y="37" width="22.5" height="43" as="geometry" />
        </mxCell>
        <mxCell id="e9a1FzbA3gTjQ1UGh1gj-140" style="edgeStyle=orthogonalEdgeStyle;rounded=0;orthogonalLoop=1;jettySize=auto;html=1;" parent="1" source="e9a1FzbA3gTjQ1UGh1gj-132" target="e9a1FzbA3gTjQ1UGh1gj-126" edge="1">
          <mxGeometry relative="1" as="geometry" />
        </mxCell>
        <mxCell id="e9a1FzbA3gTjQ1UGh1gj-144" style="edgeStyle=orthogonalEdgeStyle;rounded=0;orthogonalLoop=1;jettySize=auto;html=1;entryX=0.5;entryY=0;entryDx=0;entryDy=0;" parent="1" source="e9a1FzbA3gTjQ1UGh1gj-127" target="e9a1FzbA3gTjQ1UGh1gj-142" edge="1">
          <mxGeometry relative="1" as="geometry">
            <Array as="points">
              <mxPoint x="2280" y="511" />
            </Array>
          </mxGeometry>
        </mxCell>
        <mxCell id="e9a1FzbA3gTjQ1UGh1gj-147" style="edgeStyle=orthogonalEdgeStyle;rounded=0;orthogonalLoop=1;jettySize=auto;html=1;" parent="1" edge="1">
          <mxGeometry relative="1" as="geometry">
            <mxPoint x="124" y="287.86" as="sourcePoint" />
            <mxPoint x="171" y="287.86" as="targetPoint" />
          </mxGeometry>
        </mxCell>
        <mxCell id="e9a1FzbA3gTjQ1UGh1gj-148" style="edgeStyle=orthogonalEdgeStyle;rounded=0;orthogonalLoop=1;jettySize=auto;html=1;" parent="1" edge="1">
          <mxGeometry relative="1" as="geometry">
            <mxPoint x="124" y="262" as="sourcePoint" />
            <mxPoint x="171" y="262" as="targetPoint" />
          </mxGeometry>
        </mxCell>
        <mxCell id="e9a1FzbA3gTjQ1UGh1gj-149" value="" style="group" parent="1" vertex="1" connectable="0">
          <mxGeometry x="2277" y="583.5" width="46" height="74" as="geometry" />
        </mxCell>
        <mxCell id="e9a1FzbA3gTjQ1UGh1gj-112" value="" style="group" parent="e9a1FzbA3gTjQ1UGh1gj-149" vertex="1" connectable="0">
          <mxGeometry x="3" y="4" width="43" height="70" as="geometry" />
        </mxCell>
        <mxCell id="e9a1FzbA3gTjQ1UGh1gj-113" value="" style="group" parent="e9a1FzbA3gTjQ1UGh1gj-112" vertex="1" connectable="0">
          <mxGeometry width="43" height="70" as="geometry" />
        </mxCell>
        <mxCell id="e9a1FzbA3gTjQ1UGh1gj-114" value="&lt;div&gt;RF&lt;/div&gt;&lt;div&gt;32*32&lt;/div&gt;&lt;div&gt;&lt;br&gt;&lt;/div&gt;" style="rounded=0;whiteSpace=wrap;html=1;" parent="e9a1FzbA3gTjQ1UGh1gj-113" vertex="1">
          <mxGeometry width="43" height="70" as="geometry" />
        </mxCell>
        <mxCell id="e9a1FzbA3gTjQ1UGh1gj-115" value="" style="triangle;whiteSpace=wrap;html=1;rotation=-90;" parent="e9a1FzbA3gTjQ1UGh1gj-113" vertex="1">
          <mxGeometry x="10.25" y="37" width="22.5" height="43" as="geometry" />
        </mxCell>
        <mxCell id="e9a1FzbA3gTjQ1UGh1gj-142" value="" style="ellipse;whiteSpace=wrap;html=1;aspect=fixed;fillColor=#0A0A0A;fillStyle=solid;" parent="e9a1FzbA3gTjQ1UGh1gj-149" vertex="1">
          <mxGeometry width="6" height="6" as="geometry" />
        </mxCell>
        <mxCell id="e9a1FzbA3gTjQ1UGh1gj-151" value="D Mem&amp;nbsp;&lt;div&gt;ignorred&lt;/div&gt;" style="rounded=0;whiteSpace=wrap;html=1;" parent="1" vertex="1">
          <mxGeometry x="1873" y="680" width="120" height="60" as="geometry" />
        </mxCell>
        <mxCell id="e9a1FzbA3gTjQ1UGh1gj-152" style="edgeStyle=orthogonalEdgeStyle;rounded=0;orthogonalLoop=1;jettySize=auto;html=1;entryX=0;entryY=0.5;entryDx=0;entryDy=0;" parent="1" source="e9a1FzbA3gTjQ1UGh1gj-136" target="e9a1FzbA3gTjQ1UGh1gj-126" edge="1">
          <mxGeometry relative="1" as="geometry" />
        </mxCell>
        <mxCell id="d_JDDHmGyynqykljBrvN-11" value="" style="group" parent="1" vertex="1" connectable="0">
          <mxGeometry x="166" y="75" width="43" height="70" as="geometry" />
        </mxCell>
        <mxCell id="e9a1FzbA3gTjQ1UGh1gj-1" value="" style="group" parent="d_JDDHmGyynqykljBrvN-11" vertex="1" connectable="0">
          <mxGeometry width="43" height="70" as="geometry" />
        </mxCell>
        <mxCell id="d_JDDHmGyynqykljBrvN-8" value="PC&lt;div&gt;&lt;br&gt;&lt;/div&gt;" style="rounded=0;whiteSpace=wrap;html=1;" parent="e9a1FzbA3gTjQ1UGh1gj-1" vertex="1">
          <mxGeometry width="43" height="70" as="geometry" />
        </mxCell>
        <mxCell id="d_JDDHmGyynqykljBrvN-9" value="" style="triangle;whiteSpace=wrap;html=1;rotation=-90;" parent="e9a1FzbA3gTjQ1UGh1gj-1" vertex="1">
          <mxGeometry x="10.25" y="37" width="22.5" height="43" as="geometry" />
        </mxCell>
        <mxCell id="Ge6MpnjpsSB7cL12u8TX-11" value="" style="group;fontSize=11;" parent="1" vertex="1" connectable="0">
          <mxGeometry x="2105" y="588" width="43" height="70" as="geometry" />
        </mxCell>
        <mxCell id="Ge6MpnjpsSB7cL12u8TX-12" value="" style="group" parent="Ge6MpnjpsSB7cL12u8TX-11" vertex="1" connectable="0">
          <mxGeometry width="43" height="70" as="geometry" />
        </mxCell>
        <mxCell id="Ge6MpnjpsSB7cL12u8TX-13" value="&lt;div style=&quot;&quot;&gt;res&lt;/div&gt;&lt;div style=&quot;&quot;&gt;32&lt;/div&gt;&lt;div style=&quot;&quot;&gt;&lt;br&gt;&lt;/div&gt;" style="rounded=0;whiteSpace=wrap;html=1;" parent="Ge6MpnjpsSB7cL12u8TX-12" vertex="1">
          <mxGeometry width="43" height="70" as="geometry" />
        </mxCell>
        <mxCell id="Ge6MpnjpsSB7cL12u8TX-14" value="" style="triangle;whiteSpace=wrap;html=1;rotation=-90;" parent="Ge6MpnjpsSB7cL12u8TX-12" vertex="1">
          <mxGeometry x="10.25" y="37" width="22.5" height="43" as="geometry" />
        </mxCell>
        <mxCell id="Ge6MpnjpsSB7cL12u8TX-15" style="edgeStyle=orthogonalEdgeStyle;rounded=0;orthogonalLoop=1;jettySize=auto;html=1;entryX=0;entryY=0.5;entryDx=0;entryDy=0;" parent="1" source="e9a1FzbA3gTjQ1UGh1gj-110" target="Ge6MpnjpsSB7cL12u8TX-13" edge="1">
          <mxGeometry relative="1" as="geometry" />
        </mxCell>
        <mxCell id="Ge6MpnjpsSB7cL12u8TX-16" style="edgeStyle=orthogonalEdgeStyle;rounded=0;orthogonalLoop=1;jettySize=auto;html=1;" parent="1" source="Ge6MpnjpsSB7cL12u8TX-13" target="e9a1FzbA3gTjQ1UGh1gj-114" edge="1">
          <mxGeometry relative="1" as="geometry" />
        </mxCell>
        <mxCell id="Ge6MpnjpsSB7cL12u8TX-21" value="" style="group" parent="1" vertex="1" connectable="0">
          <mxGeometry x="1317" y="488" width="39" height="70" as="geometry" />
        </mxCell>
        <mxCell id="Ge6MpnjpsSB7cL12u8TX-22" value="" style="group" parent="Ge6MpnjpsSB7cL12u8TX-21" vertex="1" connectable="0">
          <mxGeometry width="43" height="70" as="geometry" />
        </mxCell>
        <mxCell id="Ge6MpnjpsSB7cL12u8TX-23" value="&lt;div&gt;jump&lt;/div&gt;&lt;div&gt;2&lt;/div&gt;&lt;div&gt;&lt;br&gt;&lt;/div&gt;" style="rounded=0;whiteSpace=wrap;html=1;" parent="Ge6MpnjpsSB7cL12u8TX-22" vertex="1">
          <mxGeometry width="43" height="70" as="geometry" />
        </mxCell>
        <mxCell id="Ge6MpnjpsSB7cL12u8TX-24" value="" style="triangle;whiteSpace=wrap;html=1;rotation=-90;" parent="Ge6MpnjpsSB7cL12u8TX-22" vertex="1">
          <mxGeometry x="10.25" y="37" width="22.5" height="43" as="geometry" />
        </mxCell>
        <mxCell id="Ge6MpnjpsSB7cL12u8TX-51" style="edgeStyle=orthogonalEdgeStyle;rounded=0;orthogonalLoop=1;jettySize=auto;html=1;entryX=0;entryY=0.75;entryDx=0;entryDy=0;exitX=0.5;exitY=0;exitDx=0;exitDy=0;" parent="1" source="Ge6MpnjpsSB7cL12u8TX-44" target="Ge6MpnjpsSB7cL12u8TX-49" edge="1">
          <mxGeometry relative="1" as="geometry">
            <Array as="points">
              <mxPoint x="2075" y="599" />
              <mxPoint x="1887" y="599" />
              <mxPoint x="1887" y="549" />
            </Array>
          </mxGeometry>
        </mxCell>
        <mxCell id="Ge6MpnjpsSB7cL12u8TX-44" value="+1" style="rounded=0;whiteSpace=wrap;html=1;" parent="1" vertex="1">
          <mxGeometry x="2056" y="519.5" width="38" height="33" as="geometry" />
        </mxCell>
        <mxCell id="Ge6MpnjpsSB7cL12u8TX-45" value="" style="group" parent="1" vertex="1" connectable="0">
          <mxGeometry x="1983" y="498" width="46" height="73" as="geometry" />
        </mxCell>
        <mxCell id="Ge6MpnjpsSB7cL12u8TX-33" value="" style="group" parent="Ge6MpnjpsSB7cL12u8TX-45" vertex="1" connectable="0">
          <mxGeometry x="3" y="3" width="43" height="70" as="geometry" />
        </mxCell>
        <mxCell id="Ge6MpnjpsSB7cL12u8TX-34" value="" style="group" parent="Ge6MpnjpsSB7cL12u8TX-33" vertex="1" connectable="0">
          <mxGeometry width="43" height="70" as="geometry" />
        </mxCell>
        <mxCell id="Ge6MpnjpsSB7cL12u8TX-35" value="PC&lt;div&gt;&lt;br&gt;&lt;/div&gt;" style="rounded=0;whiteSpace=wrap;html=1;" parent="Ge6MpnjpsSB7cL12u8TX-34" vertex="1">
          <mxGeometry width="43" height="70" as="geometry" />
        </mxCell>
        <mxCell id="Ge6MpnjpsSB7cL12u8TX-36" value="" style="triangle;whiteSpace=wrap;html=1;rotation=-90;" parent="Ge6MpnjpsSB7cL12u8TX-34" vertex="1">
          <mxGeometry x="10.25" y="37" width="22.5" height="43" as="geometry" />
        </mxCell>
        <mxCell id="Ge6MpnjpsSB7cL12u8TX-46" value="" style="group" parent="1" vertex="1" connectable="0">
          <mxGeometry x="1918" y="508.5" width="33" height="55" as="geometry" />
        </mxCell>
        <mxCell id="Ge6MpnjpsSB7cL12u8TX-47" value="" style="group" parent="Ge6MpnjpsSB7cL12u8TX-46" vertex="1" connectable="0">
          <mxGeometry width="33" height="55" as="geometry" />
        </mxCell>
        <mxCell id="Ge6MpnjpsSB7cL12u8TX-48" value="&lt;div&gt;&lt;br&gt;&lt;/div&gt;" style="rounded=0;whiteSpace=wrap;html=1;" parent="Ge6MpnjpsSB7cL12u8TX-47" vertex="1">
          <mxGeometry width="33" height="55" as="geometry" />
        </mxCell>
        <mxCell id="Ge6MpnjpsSB7cL12u8TX-49" value="" style="triangle;whiteSpace=wrap;html=1;rotation=0;" parent="Ge6MpnjpsSB7cL12u8TX-47" vertex="1">
          <mxGeometry width="25" height="54.21" as="geometry" />
        </mxCell>
        <mxCell id="Ge6MpnjpsSB7cL12u8TX-50" style="edgeStyle=orthogonalEdgeStyle;rounded=0;orthogonalLoop=1;jettySize=auto;html=1;" parent="1" source="Ge6MpnjpsSB7cL12u8TX-35" target="Ge6MpnjpsSB7cL12u8TX-44" edge="1">
          <mxGeometry relative="1" as="geometry" />
        </mxCell>
        <mxCell id="Ge6MpnjpsSB7cL12u8TX-52" style="edgeStyle=orthogonalEdgeStyle;rounded=0;orthogonalLoop=1;jettySize=auto;html=1;" parent="1" source="Ge6MpnjpsSB7cL12u8TX-48" target="Ge6MpnjpsSB7cL12u8TX-35" edge="1">
          <mxGeometry relative="1" as="geometry" />
        </mxCell>
        <mxCell id="Ge6MpnjpsSB7cL12u8TX-80" value="" style="group" parent="1" vertex="1" connectable="0">
          <mxGeometry x="830" y="680.71" width="33" height="55" as="geometry" />
        </mxCell>
        <mxCell id="Ge6MpnjpsSB7cL12u8TX-81" value="" style="group" parent="Ge6MpnjpsSB7cL12u8TX-80" vertex="1" connectable="0">
          <mxGeometry width="33" height="55" as="geometry" />
        </mxCell>
        <mxCell id="Ge6MpnjpsSB7cL12u8TX-82" value="&lt;div&gt;&lt;br&gt;&lt;/div&gt;" style="rounded=0;whiteSpace=wrap;html=1;" parent="Ge6MpnjpsSB7cL12u8TX-81" vertex="1">
          <mxGeometry x="32" width="33" height="55" as="geometry" />
        </mxCell>
        <mxCell id="Ge6MpnjpsSB7cL12u8TX-83" value="" style="triangle;whiteSpace=wrap;html=1;rotation=0;" parent="Ge6MpnjpsSB7cL12u8TX-81" vertex="1">
          <mxGeometry x="31" width="25" height="54.21" as="geometry" />
        </mxCell>
        <mxCell id="Ge6MpnjpsSB7cL12u8TX-84" style="edgeStyle=orthogonalEdgeStyle;rounded=0;orthogonalLoop=1;jettySize=auto;html=1;" parent="1" source="e9a1FzbA3gTjQ1UGh1gj-38" target="Ge6MpnjpsSB7cL12u8TX-83" edge="1">
          <mxGeometry relative="1" as="geometry" />
        </mxCell>
        <mxCell id="Ge6MpnjpsSB7cL12u8TX-85" style="edgeStyle=orthogonalEdgeStyle;rounded=0;orthogonalLoop=1;jettySize=auto;html=1;" parent="1" source="Ge6MpnjpsSB7cL12u8TX-82" target="e9a1FzbA3gTjQ1UGh1gj-77" edge="1">
          <mxGeometry relative="1" as="geometry" />
        </mxCell>
        <mxCell id="wecIJHsFAUluWBLJBi0x-1" value="" style="group;fontSize=11;" parent="1" vertex="1" connectable="0">
          <mxGeometry x="2105" y="784" width="43" height="70" as="geometry" />
        </mxCell>
        <mxCell id="wecIJHsFAUluWBLJBi0x-2" value="" style="group" parent="wecIJHsFAUluWBLJBi0x-1" vertex="1" connectable="0">
          <mxGeometry width="43" height="70" as="geometry" />
        </mxCell>
        <mxCell id="wecIJHsFAUluWBLJBi0x-3" value="&lt;div style=&quot;&quot;&gt;nop&lt;/div&gt;&lt;div style=&quot;&quot;&gt;1&lt;/div&gt;&lt;div style=&quot;&quot;&gt;&lt;br&gt;&lt;/div&gt;" style="rounded=0;whiteSpace=wrap;html=1;" parent="wecIJHsFAUluWBLJBi0x-2" vertex="1">
          <mxGeometry width="43" height="70" as="geometry" />
        </mxCell>
        <mxCell id="wecIJHsFAUluWBLJBi0x-4" value="" style="triangle;whiteSpace=wrap;html=1;rotation=-90;" parent="wecIJHsFAUluWBLJBi0x-2" vertex="1">
          <mxGeometry x="10.25" y="37" width="22.5" height="43" as="geometry" />
        </mxCell>
        <mxCell id="wecIJHsFAUluWBLJBi0x-5" value="" style="group;fontSize=11;" parent="1" vertex="1" connectable="0">
          <mxGeometry x="1319" y="784" width="43" height="70" as="geometry" />
        </mxCell>
        <mxCell id="wecIJHsFAUluWBLJBi0x-6" value="" style="group" parent="wecIJHsFAUluWBLJBi0x-5" vertex="1" connectable="0">
          <mxGeometry width="43" height="70" as="geometry" />
        </mxCell>
        <mxCell id="wecIJHsFAUluWBLJBi0x-7" value="&lt;div style=&quot;&quot;&gt;nop&lt;/div&gt;&lt;div style=&quot;&quot;&gt;1&lt;/div&gt;&lt;div style=&quot;&quot;&gt;&lt;br&gt;&lt;/div&gt;" style="rounded=0;whiteSpace=wrap;html=1;" parent="wecIJHsFAUluWBLJBi0x-6" vertex="1">
          <mxGeometry width="43" height="70" as="geometry" />
        </mxCell>
        <mxCell id="wecIJHsFAUluWBLJBi0x-8" value="" style="triangle;whiteSpace=wrap;html=1;rotation=-90;" parent="wecIJHsFAUluWBLJBi0x-6" vertex="1">
          <mxGeometry x="10.25" y="37" width="22.5" height="43" as="geometry" />
        </mxCell>
        <mxCell id="wecIJHsFAUluWBLJBi0x-9" value="" style="group;fontSize=11;" parent="1" vertex="1" connectable="0">
          <mxGeometry x="960" y="784" width="43" height="70" as="geometry" />
        </mxCell>
        <mxCell id="wecIJHsFAUluWBLJBi0x-10" value="" style="group" parent="wecIJHsFAUluWBLJBi0x-9" vertex="1" connectable="0">
          <mxGeometry width="43" height="70" as="geometry" />
        </mxCell>
        <mxCell id="wecIJHsFAUluWBLJBi0x-11" value="&lt;div style=&quot;&quot;&gt;nop&lt;/div&gt;&lt;div style=&quot;&quot;&gt;1&lt;/div&gt;&lt;div style=&quot;&quot;&gt;&lt;br&gt;&lt;/div&gt;" style="rounded=0;whiteSpace=wrap;html=1;" parent="wecIJHsFAUluWBLJBi0x-10" vertex="1">
          <mxGeometry width="43" height="70" as="geometry" />
        </mxCell>
        <mxCell id="wecIJHsFAUluWBLJBi0x-12" value="" style="triangle;whiteSpace=wrap;html=1;rotation=-90;" parent="wecIJHsFAUluWBLJBi0x-10" vertex="1">
          <mxGeometry x="10.25" y="37" width="22.5" height="43" as="geometry" />
        </mxCell>
        <mxCell id="wecIJHsFAUluWBLJBi0x-13" value="" style="group;fontSize=11;" parent="1" vertex="1" connectable="0">
          <mxGeometry x="475" y="784" width="43" height="70" as="geometry" />
        </mxCell>
        <mxCell id="wecIJHsFAUluWBLJBi0x-14" value="" style="group" parent="wecIJHsFAUluWBLJBi0x-13" vertex="1" connectable="0">
          <mxGeometry width="43" height="70" as="geometry" />
        </mxCell>
        <mxCell id="wecIJHsFAUluWBLJBi0x-15" value="&lt;div style=&quot;&quot;&gt;nop&lt;/div&gt;&lt;div style=&quot;&quot;&gt;1&lt;/div&gt;&lt;div style=&quot;&quot;&gt;&lt;br&gt;&lt;/div&gt;" style="rounded=0;whiteSpace=wrap;html=1;" parent="wecIJHsFAUluWBLJBi0x-14" vertex="1">
          <mxGeometry width="43" height="70" as="geometry" />
        </mxCell>
        <mxCell id="wecIJHsFAUluWBLJBi0x-16" value="" style="triangle;whiteSpace=wrap;html=1;rotation=-90;" parent="wecIJHsFAUluWBLJBi0x-14" vertex="1">
          <mxGeometry x="10.25" y="37" width="22.5" height="43" as="geometry" />
        </mxCell>
        <mxCell id="wecIJHsFAUluWBLJBi0x-21" value="WB" style="text;html=1;align=center;verticalAlign=middle;whiteSpace=wrap;rounded=0;" parent="1" vertex="1">
          <mxGeometry x="2221" y="-51" width="56" height="30" as="geometry" />
        </mxCell>
        <mxCell id="YcwE7kRb64O2rknFhJXe-1" value="" style="group" vertex="1" connectable="0" parent="1">
          <mxGeometry x="953" y="-23" width="43" height="70" as="geometry" />
        </mxCell>
        <mxCell id="YcwE7kRb64O2rknFhJXe-2" value="" style="group" vertex="1" connectable="0" parent="YcwE7kRb64O2rknFhJXe-1">
          <mxGeometry width="43" height="70" as="geometry" />
        </mxCell>
        <mxCell id="YcwE7kRb64O2rknFhJXe-3" value="PC&lt;div&gt;&lt;br&gt;&lt;/div&gt;" style="rounded=0;whiteSpace=wrap;html=1;" vertex="1" parent="YcwE7kRb64O2rknFhJXe-2">
          <mxGeometry width="43" height="70" as="geometry" />
        </mxCell>
        <mxCell id="YcwE7kRb64O2rknFhJXe-4" value="" style="triangle;whiteSpace=wrap;html=1;rotation=-90;" vertex="1" parent="YcwE7kRb64O2rknFhJXe-2">
          <mxGeometry x="10.25" y="37" width="22.5" height="43" as="geometry" />
        </mxCell>
        <mxCell id="YcwE7kRb64O2rknFhJXe-5" value="" style="edgeStyle=orthogonalEdgeStyle;rounded=0;orthogonalLoop=1;jettySize=auto;html=1;entryX=0;entryY=0.5;entryDx=0;entryDy=0;" edge="1" parent="1" source="d_JDDHmGyynqykljBrvN-8" target="YcwE7kRb64O2rknFhJXe-3">
          <mxGeometry relative="1" as="geometry" />
        </mxCell>
        <mxCell id="YcwE7kRb64O2rknFhJXe-6" value="" style="group" vertex="1" connectable="0" parent="1">
          <mxGeometry x="1313" y="-23" width="43" height="70" as="geometry" />
        </mxCell>
        <mxCell id="YcwE7kRb64O2rknFhJXe-7" value="" style="group" vertex="1" connectable="0" parent="YcwE7kRb64O2rknFhJXe-6">
          <mxGeometry width="43" height="70" as="geometry" />
        </mxCell>
        <mxCell id="YcwE7kRb64O2rknFhJXe-8" value="PC&lt;div&gt;&lt;br&gt;&lt;/div&gt;" style="rounded=0;whiteSpace=wrap;html=1;" vertex="1" parent="YcwE7kRb64O2rknFhJXe-7">
          <mxGeometry width="43" height="70" as="geometry" />
        </mxCell>
        <mxCell id="YcwE7kRb64O2rknFhJXe-9" value="" style="triangle;whiteSpace=wrap;html=1;rotation=-90;" vertex="1" parent="YcwE7kRb64O2rknFhJXe-7">
          <mxGeometry x="10.25" y="37" width="22.5" height="43" as="geometry" />
        </mxCell>
        <mxCell id="YcwE7kRb64O2rknFhJXe-10" value="" style="group" vertex="1" connectable="0" parent="1">
          <mxGeometry x="2105" y="-23" width="43" height="70" as="geometry" />
        </mxCell>
        <mxCell id="YcwE7kRb64O2rknFhJXe-11" value="" style="group" vertex="1" connectable="0" parent="YcwE7kRb64O2rknFhJXe-10">
          <mxGeometry width="43" height="70" as="geometry" />
        </mxCell>
        <mxCell id="YcwE7kRb64O2rknFhJXe-12" value="PC&lt;div&gt;&lt;br&gt;&lt;/div&gt;" style="rounded=0;whiteSpace=wrap;html=1;" vertex="1" parent="YcwE7kRb64O2rknFhJXe-11">
          <mxGeometry width="43" height="70" as="geometry" />
        </mxCell>
        <mxCell id="YcwE7kRb64O2rknFhJXe-13" value="" style="triangle;whiteSpace=wrap;html=1;rotation=-90;" vertex="1" parent="YcwE7kRb64O2rknFhJXe-11">
          <mxGeometry x="10.25" y="37" width="22.5" height="43" as="geometry" />
        </mxCell>
        <mxCell id="YcwE7kRb64O2rknFhJXe-14" style="edgeStyle=orthogonalEdgeStyle;rounded=0;orthogonalLoop=1;jettySize=auto;html=1;" edge="1" parent="1" source="YcwE7kRb64O2rknFhJXe-3" target="YcwE7kRb64O2rknFhJXe-8">
          <mxGeometry relative="1" as="geometry" />
        </mxCell>
        <mxCell id="YcwE7kRb64O2rknFhJXe-17" style="edgeStyle=orthogonalEdgeStyle;rounded=0;orthogonalLoop=1;jettySize=auto;html=1;entryX=0;entryY=0.25;entryDx=0;entryDy=0;" edge="1" parent="1" source="YcwE7kRb64O2rknFhJXe-16" target="Ge6MpnjpsSB7cL12u8TX-49">
          <mxGeometry relative="1" as="geometry" />
        </mxCell>
        <mxCell id="YcwE7kRb64O2rknFhJXe-16" value="+" style="rounded=0;whiteSpace=wrap;html=1;" vertex="1" parent="1">
          <mxGeometry x="1841" y="482" width="38" height="33" as="geometry" />
        </mxCell>
        <mxCell id="YcwE7kRb64O2rknFhJXe-20" value="" style="rounded=0;whiteSpace=wrap;html=1;dashed=1;" vertex="1" parent="1">
          <mxGeometry x="521" y="1116" width="528" height="357" as="geometry" />
        </mxCell>
        <mxCell id="YcwE7kRb64O2rknFhJXe-19" value="ROB" style="text;html=1;align=center;verticalAlign=middle;whiteSpace=wrap;rounded=0;fontSize=22;fontStyle=1" vertex="1" parent="1">
          <mxGeometry x="522" y="1117" width="60" height="30" as="geometry" />
        </mxCell>
        <mxCell id="YcwE7kRb64O2rknFhJXe-32" value="Head" style="rounded=0;whiteSpace=wrap;html=1;" vertex="1" parent="1">
          <mxGeometry x="654" y="1152" width="62" height="22" as="geometry" />
        </mxCell>
        <mxCell id="YcwE7kRb64O2rknFhJXe-33" value="Tail" style="rounded=0;whiteSpace=wrap;html=1;" vertex="1" parent="1">
          <mxGeometry x="732" y="1152" width="62" height="22" as="geometry" />
        </mxCell>
        <mxCell id="YcwE7kRb64O2rknFhJXe-54" value="" style="ellipse;whiteSpace=wrap;html=1;" vertex="1" parent="1">
          <mxGeometry x="511" y="1157" width="20" height="20" as="geometry" />
        </mxCell>
        <mxCell id="YcwE7kRb64O2rknFhJXe-56" value="" style="ellipse;whiteSpace=wrap;html=1;" vertex="1" parent="1">
          <mxGeometry x="511" y="1219" width="20" height="20" as="geometry" />
        </mxCell>
        <mxCell id="YcwE7kRb64O2rknFhJXe-58" value="set_v" style="text;html=1;align=left;verticalAlign=middle;whiteSpace=wrap;rounded=0;" vertex="1" parent="1">
          <mxGeometry x="539" y="1183" width="55" height="30" as="geometry" />
        </mxCell>
        <mxCell id="YcwE7kRb64O2rknFhJXe-88" value="set_exc" style="text;html=1;align=left;verticalAlign=middle;whiteSpace=wrap;rounded=0;" vertex="1" parent="1">
          <mxGeometry x="539" y="1213" width="55" height="30" as="geometry" />
        </mxCell>
        <mxCell id="YcwE7kRb64O2rknFhJXe-89" value="set_reg_val" style="text;html=1;align=left;verticalAlign=middle;whiteSpace=wrap;rounded=0;" vertex="1" parent="1">
          <mxGeometry x="539" y="1245" width="55" height="30" as="geometry" />
        </mxCell>
        <mxCell id="YcwE7kRb64O2rknFhJXe-55" value="" style="ellipse;whiteSpace=wrap;html=1;" vertex="1" parent="1">
          <mxGeometry x="511" y="1189" width="20" height="20" as="geometry" />
        </mxCell>
        <mxCell id="YcwE7kRb64O2rknFhJXe-91" value="Exc (bits):&lt;div&gt;0. I Cache Miss&lt;/div&gt;&lt;div&gt;1. M Cache Miss&lt;/div&gt;&lt;div&gt;2. TLB miss&lt;/div&gt;&lt;div&gt;&lt;br&gt;&lt;/div&gt;" style="text;html=1;align=left;verticalAlign=top;whiteSpace=wrap;rounded=0;" vertex="1" parent="1">
          <mxGeometry x="539" y="1326" width="308" height="134" as="geometry" />
        </mxCell>
        <mxCell id="YcwE7kRb64O2rknFhJXe-92" value="" style="group;fontSize=11;" vertex="1" connectable="0" parent="1">
          <mxGeometry x="475" y="867" width="43" height="70" as="geometry" />
        </mxCell>
        <mxCell id="YcwE7kRb64O2rknFhJXe-93" value="" style="group" vertex="1" connectable="0" parent="YcwE7kRb64O2rknFhJXe-92">
          <mxGeometry width="43" height="70" as="geometry" />
        </mxCell>
        <mxCell id="YcwE7kRb64O2rknFhJXe-94" value="&lt;div style=&quot;&quot;&gt;tail&lt;/div&gt;&lt;div style=&quot;&quot;&gt;&lt;span style=&quot;background-color: initial;&quot;&gt;2&lt;/span&gt;&lt;/div&gt;&lt;div style=&quot;&quot;&gt;&lt;br&gt;&lt;/div&gt;" style="rounded=0;whiteSpace=wrap;html=1;" vertex="1" parent="YcwE7kRb64O2rknFhJXe-93">
          <mxGeometry width="43" height="70" as="geometry" />
        </mxCell>
        <mxCell id="YcwE7kRb64O2rknFhJXe-95" value="" style="triangle;whiteSpace=wrap;html=1;rotation=-90;" vertex="1" parent="YcwE7kRb64O2rknFhJXe-93">
          <mxGeometry x="10.25" y="37" width="22.5" height="43" as="geometry" />
        </mxCell>
        <mxCell id="YcwE7kRb64O2rknFhJXe-96" value="" style="group;fontSize=11;" vertex="1" connectable="0" parent="1">
          <mxGeometry x="960" y="867" width="43" height="70" as="geometry" />
        </mxCell>
        <mxCell id="YcwE7kRb64O2rknFhJXe-97" value="" style="group" vertex="1" connectable="0" parent="YcwE7kRb64O2rknFhJXe-96">
          <mxGeometry width="43" height="70" as="geometry" />
        </mxCell>
        <mxCell id="YcwE7kRb64O2rknFhJXe-98" value="&lt;div style=&quot;&quot;&gt;tail&lt;br&gt;&lt;/div&gt;&lt;div style=&quot;&quot;&gt;2&lt;/div&gt;&lt;div style=&quot;&quot;&gt;&lt;br&gt;&lt;/div&gt;" style="rounded=0;whiteSpace=wrap;html=1;" vertex="1" parent="YcwE7kRb64O2rknFhJXe-97">
          <mxGeometry width="43" height="70" as="geometry" />
        </mxCell>
        <mxCell id="YcwE7kRb64O2rknFhJXe-99" value="" style="triangle;whiteSpace=wrap;html=1;rotation=-90;" vertex="1" parent="YcwE7kRb64O2rknFhJXe-97">
          <mxGeometry x="10.25" y="37" width="22.5" height="43" as="geometry" />
        </mxCell>
        <mxCell id="YcwE7kRb64O2rknFhJXe-100" value="" style="group;fontSize=11;" vertex="1" connectable="0" parent="1">
          <mxGeometry x="1317" y="867" width="43" height="70" as="geometry" />
        </mxCell>
        <mxCell id="YcwE7kRb64O2rknFhJXe-101" value="" style="group" vertex="1" connectable="0" parent="YcwE7kRb64O2rknFhJXe-100">
          <mxGeometry width="43" height="70" as="geometry" />
        </mxCell>
        <mxCell id="YcwE7kRb64O2rknFhJXe-102" value="&lt;div style=&quot;&quot;&gt;tail&lt;br&gt;&lt;/div&gt;&lt;div style=&quot;&quot;&gt;2&lt;/div&gt;&lt;div style=&quot;&quot;&gt;&lt;br&gt;&lt;/div&gt;" style="rounded=0;whiteSpace=wrap;html=1;" vertex="1" parent="YcwE7kRb64O2rknFhJXe-101">
          <mxGeometry width="43" height="70" as="geometry" />
        </mxCell>
        <mxCell id="YcwE7kRb64O2rknFhJXe-103" value="" style="triangle;whiteSpace=wrap;html=1;rotation=-90;" vertex="1" parent="YcwE7kRb64O2rknFhJXe-101">
          <mxGeometry x="10.25" y="37" width="22.5" height="43" as="geometry" />
        </mxCell>
        <mxCell id="YcwE7kRb64O2rknFhJXe-104" value="" style="group;fontSize=11;" vertex="1" connectable="0" parent="1">
          <mxGeometry x="2105" y="868" width="43" height="70" as="geometry" />
        </mxCell>
        <mxCell id="YcwE7kRb64O2rknFhJXe-105" value="" style="group" vertex="1" connectable="0" parent="YcwE7kRb64O2rknFhJXe-104">
          <mxGeometry width="43" height="70" as="geometry" />
        </mxCell>
        <mxCell id="YcwE7kRb64O2rknFhJXe-106" value="&lt;div style=&quot;&quot;&gt;&lt;span style=&quot;background-color: initial;&quot;&gt;tail&lt;/span&gt;&lt;/div&gt;&lt;div style=&quot;&quot;&gt;2&lt;/div&gt;&lt;div style=&quot;&quot;&gt;&lt;br&gt;&lt;/div&gt;" style="rounded=0;whiteSpace=wrap;html=1;" vertex="1" parent="YcwE7kRb64O2rknFhJXe-105">
          <mxGeometry width="43" height="70" as="geometry" />
        </mxCell>
        <mxCell id="YcwE7kRb64O2rknFhJXe-107" value="" style="triangle;whiteSpace=wrap;html=1;rotation=-90;" vertex="1" parent="YcwE7kRb64O2rknFhJXe-105">
          <mxGeometry x="10.25" y="37" width="22.5" height="43" as="geometry" />
        </mxCell>
        <mxCell id="YcwE7kRb64O2rknFhJXe-108" value="Rob Tail" style="edgeStyle=orthogonalEdgeStyle;rounded=0;orthogonalLoop=1;jettySize=auto;html=1;entryX=0;entryY=0.5;entryDx=0;entryDy=0;" edge="1" parent="1" source="YcwE7kRb64O2rknFhJXe-94" target="YcwE7kRb64O2rknFhJXe-98">
          <mxGeometry relative="1" as="geometry" />
        </mxCell>
        <mxCell id="YcwE7kRb64O2rknFhJXe-109" style="edgeStyle=orthogonalEdgeStyle;rounded=0;orthogonalLoop=1;jettySize=auto;html=1;entryX=0;entryY=0.5;entryDx=0;entryDy=0;" edge="1" parent="1" source="YcwE7kRb64O2rknFhJXe-98" target="YcwE7kRb64O2rknFhJXe-102">
          <mxGeometry relative="1" as="geometry" />
        </mxCell>
        <mxCell id="YcwE7kRb64O2rknFhJXe-114" style="edgeStyle=orthogonalEdgeStyle;rounded=0;orthogonalLoop=1;jettySize=auto;html=1;entryX=0;entryY=0.5;entryDx=0;entryDy=0;exitX=0;exitY=0.5;exitDx=0;exitDy=0;" edge="1" parent="1" source="YcwE7kRb64O2rknFhJXe-112" target="YcwE7kRb64O2rknFhJXe-202">
          <mxGeometry relative="1" as="geometry">
            <Array as="points">
              <mxPoint x="253" y="974" />
              <mxPoint x="253" y="902" />
            </Array>
          </mxGeometry>
        </mxCell>
        <mxCell id="YcwE7kRb64O2rknFhJXe-112" value="+1 mod k" style="rounded=0;whiteSpace=wrap;html=1;" vertex="1" parent="1">
          <mxGeometry x="289" y="957" width="78" height="33" as="geometry" />
        </mxCell>
        <mxCell id="YcwE7kRb64O2rknFhJXe-113" style="edgeStyle=orthogonalEdgeStyle;rounded=0;orthogonalLoop=1;jettySize=auto;html=1;entryX=1;entryY=0.5;entryDx=0;entryDy=0;exitX=1;exitY=0.5;exitDx=0;exitDy=0;" edge="1" parent="1" source="YcwE7kRb64O2rknFhJXe-202" target="YcwE7kRb64O2rknFhJXe-112">
          <mxGeometry relative="1" as="geometry">
            <Array as="points">
              <mxPoint x="409" y="902" />
              <mxPoint x="409" y="973" />
              <mxPoint x="366" y="973" />
            </Array>
          </mxGeometry>
        </mxCell>
        <mxCell id="YcwE7kRb64O2rknFhJXe-115" value="TODO:&lt;div&gt;- handle Jump when commiting (=&amp;gt; clear rob)&lt;/div&gt;&lt;div&gt;- Handle store when&amp;nbsp;&lt;/div&gt;" style="text;html=1;align=left;verticalAlign=top;whiteSpace=wrap;rounded=0;" vertex="1" parent="1">
          <mxGeometry x="1209" y="1117" width="291" height="133" as="geometry" />
        </mxCell>
        <mxCell id="YcwE7kRb64O2rknFhJXe-116" value="TL" style="text;html=1;align=center;verticalAlign=middle;whiteSpace=wrap;rounded=0;" vertex="1" parent="1">
          <mxGeometry x="1544" y="-55" width="60" height="30" as="geometry" />
        </mxCell>
        <mxCell id="YcwE7kRb64O2rknFhJXe-117" value="" style="endArrow=none;html=1;rounded=0;dashed=1;dashPattern=8 8;" edge="1" parent="1">
          <mxGeometry width="50" height="50" relative="1" as="geometry">
            <mxPoint x="1766" y="953.29" as="sourcePoint" />
            <mxPoint x="1766" y="-90" as="targetPoint" />
          </mxGeometry>
        </mxCell>
        <mxCell id="YcwE7kRb64O2rknFhJXe-118" value="" style="group" vertex="1" connectable="0" parent="1">
          <mxGeometry x="1693" y="74" width="39" height="70" as="geometry" />
        </mxCell>
        <mxCell id="YcwE7kRb64O2rknFhJXe-119" value="" style="group" vertex="1" connectable="0" parent="YcwE7kRb64O2rknFhJXe-118">
          <mxGeometry width="43" height="70" as="geometry" />
        </mxCell>
        <mxCell id="YcwE7kRb64O2rknFhJXe-120" value="&lt;div&gt;r_d_a&lt;/div&gt;&lt;div&gt;5&lt;/div&gt;&lt;div&gt;&lt;br&gt;&lt;/div&gt;" style="rounded=0;whiteSpace=wrap;html=1;" vertex="1" parent="YcwE7kRb64O2rknFhJXe-119">
          <mxGeometry width="43" height="70" as="geometry" />
        </mxCell>
        <mxCell id="YcwE7kRb64O2rknFhJXe-121" value="" style="triangle;whiteSpace=wrap;html=1;rotation=-90;" vertex="1" parent="YcwE7kRb64O2rknFhJXe-119">
          <mxGeometry x="10.25" y="37" width="22.5" height="43" as="geometry" />
        </mxCell>
        <mxCell id="YcwE7kRb64O2rknFhJXe-122" value="" style="group" vertex="1" connectable="0" parent="1">
          <mxGeometry x="1693" y="164" width="39" height="70" as="geometry" />
        </mxCell>
        <mxCell id="YcwE7kRb64O2rknFhJXe-123" value="" style="group" vertex="1" connectable="0" parent="YcwE7kRb64O2rknFhJXe-122">
          <mxGeometry width="43" height="70" as="geometry" />
        </mxCell>
        <mxCell id="YcwE7kRb64O2rknFhJXe-124" value="&lt;div&gt;w&lt;/div&gt;&lt;div&gt;1&lt;/div&gt;&lt;div&gt;&lt;br&gt;&lt;/div&gt;" style="rounded=0;whiteSpace=wrap;html=1;" vertex="1" parent="YcwE7kRb64O2rknFhJXe-123">
          <mxGeometry width="43" height="70" as="geometry" />
        </mxCell>
        <mxCell id="YcwE7kRb64O2rknFhJXe-125" value="" style="triangle;whiteSpace=wrap;html=1;rotation=-90;" vertex="1" parent="YcwE7kRb64O2rknFhJXe-123">
          <mxGeometry x="10.25" y="37" width="22.5" height="43" as="geometry" />
        </mxCell>
        <mxCell id="YcwE7kRb64O2rknFhJXe-126" value="" style="group" vertex="1" connectable="0" parent="1">
          <mxGeometry x="1693" y="253" width="39" height="70" as="geometry" />
        </mxCell>
        <mxCell id="YcwE7kRb64O2rknFhJXe-127" value="" style="group" vertex="1" connectable="0" parent="YcwE7kRb64O2rknFhJXe-126">
          <mxGeometry width="43" height="70" as="geometry" />
        </mxCell>
        <mxCell id="YcwE7kRb64O2rknFhJXe-128" value="&lt;div style=&quot;&quot;&gt;&lt;span style=&quot;background-color: initial;&quot;&gt;&lt;font style=&quot;font-size: 12px;&quot;&gt;is_load&lt;/font&gt;&lt;/span&gt;&lt;/div&gt;&lt;div style=&quot;&quot;&gt;&lt;font style=&quot;font-size: 12px;&quot;&gt;&lt;span style=&quot;background-color: initial;&quot;&gt;1&lt;/span&gt;&lt;br&gt;&lt;/font&gt;&lt;/div&gt;&lt;div style=&quot;&quot;&gt;&lt;br&gt;&lt;/div&gt;" style="rounded=0;whiteSpace=wrap;html=1;" vertex="1" parent="YcwE7kRb64O2rknFhJXe-127">
          <mxGeometry width="43" height="70" as="geometry" />
        </mxCell>
        <mxCell id="YcwE7kRb64O2rknFhJXe-129" value="" style="triangle;whiteSpace=wrap;html=1;rotation=-90;" vertex="1" parent="YcwE7kRb64O2rknFhJXe-127">
          <mxGeometry x="10.25" y="37" width="22.5" height="43" as="geometry" />
        </mxCell>
        <mxCell id="YcwE7kRb64O2rknFhJXe-130" value="" style="group;fontSize=11;" vertex="1" connectable="0" parent="1">
          <mxGeometry x="1693" y="335.5" width="39" height="70" as="geometry" />
        </mxCell>
        <mxCell id="YcwE7kRb64O2rknFhJXe-131" value="" style="group" vertex="1" connectable="0" parent="YcwE7kRb64O2rknFhJXe-130">
          <mxGeometry width="43" height="70" as="geometry" />
        </mxCell>
        <mxCell id="YcwE7kRb64O2rknFhJXe-132" value="&lt;div style=&quot;&quot;&gt;&lt;span style=&quot;background-color: initial;&quot;&gt;&lt;font style=&quot;font-size: 11px;&quot;&gt;is_store&lt;/font&gt;&lt;/span&gt;&lt;/div&gt;&lt;div style=&quot;&quot;&gt;&lt;font style=&quot;font-size: 12px;&quot;&gt;&lt;span style=&quot;background-color: initial;&quot;&gt;1&lt;/span&gt;&lt;br&gt;&lt;/font&gt;&lt;/div&gt;&lt;div style=&quot;&quot;&gt;&lt;br&gt;&lt;/div&gt;" style="rounded=0;whiteSpace=wrap;html=1;" vertex="1" parent="YcwE7kRb64O2rknFhJXe-131">
          <mxGeometry width="43" height="70" as="geometry" />
        </mxCell>
        <mxCell id="YcwE7kRb64O2rknFhJXe-133" value="" style="triangle;whiteSpace=wrap;html=1;rotation=-90;" vertex="1" parent="YcwE7kRb64O2rknFhJXe-131">
          <mxGeometry x="10.25" y="37" width="22.5" height="43" as="geometry" />
        </mxCell>
        <mxCell id="YcwE7kRb64O2rknFhJXe-134" value="" style="group;fontSize=11;" vertex="1" connectable="0" parent="1">
          <mxGeometry x="1693" y="587.5" width="43" height="70" as="geometry" />
        </mxCell>
        <mxCell id="YcwE7kRb64O2rknFhJXe-135" value="" style="group" vertex="1" connectable="0" parent="YcwE7kRb64O2rknFhJXe-134">
          <mxGeometry width="43" height="70" as="geometry" />
        </mxCell>
        <mxCell id="YcwE7kRb64O2rknFhJXe-136" value="&lt;div style=&quot;&quot;&gt;res&lt;/div&gt;&lt;div style=&quot;&quot;&gt;32&lt;/div&gt;&lt;div style=&quot;&quot;&gt;&lt;br&gt;&lt;/div&gt;" style="rounded=0;whiteSpace=wrap;html=1;" vertex="1" parent="YcwE7kRb64O2rknFhJXe-135">
          <mxGeometry width="43" height="70" as="geometry" />
        </mxCell>
        <mxCell id="YcwE7kRb64O2rknFhJXe-137" value="" style="triangle;whiteSpace=wrap;html=1;rotation=-90;" vertex="1" parent="YcwE7kRb64O2rknFhJXe-135">
          <mxGeometry x="10.25" y="37" width="22.5" height="43" as="geometry" />
        </mxCell>
        <mxCell id="YcwE7kRb64O2rknFhJXe-138" value="" style="group" vertex="1" connectable="0" parent="1">
          <mxGeometry x="1695" y="488" width="39" height="70" as="geometry" />
        </mxCell>
        <mxCell id="YcwE7kRb64O2rknFhJXe-139" value="" style="group" vertex="1" connectable="0" parent="YcwE7kRb64O2rknFhJXe-138">
          <mxGeometry width="43" height="70" as="geometry" />
        </mxCell>
        <mxCell id="YcwE7kRb64O2rknFhJXe-140" value="&lt;div&gt;jump&lt;/div&gt;&lt;div&gt;2&lt;/div&gt;&lt;div&gt;&lt;br&gt;&lt;/div&gt;" style="rounded=0;whiteSpace=wrap;html=1;" vertex="1" parent="YcwE7kRb64O2rknFhJXe-139">
          <mxGeometry width="43" height="70" as="geometry" />
        </mxCell>
        <mxCell id="YcwE7kRb64O2rknFhJXe-141" value="" style="triangle;whiteSpace=wrap;html=1;rotation=-90;" vertex="1" parent="YcwE7kRb64O2rknFhJXe-139">
          <mxGeometry x="10.25" y="37" width="22.5" height="43" as="geometry" />
        </mxCell>
        <mxCell id="YcwE7kRb64O2rknFhJXe-142" value="" style="group;fontSize=11;" vertex="1" connectable="0" parent="1">
          <mxGeometry x="1697" y="784" width="43" height="70" as="geometry" />
        </mxCell>
        <mxCell id="YcwE7kRb64O2rknFhJXe-143" value="" style="group" vertex="1" connectable="0" parent="YcwE7kRb64O2rknFhJXe-142">
          <mxGeometry width="43" height="70" as="geometry" />
        </mxCell>
        <mxCell id="YcwE7kRb64O2rknFhJXe-144" value="&lt;div style=&quot;&quot;&gt;nop&lt;/div&gt;&lt;div style=&quot;&quot;&gt;1&lt;/div&gt;&lt;div style=&quot;&quot;&gt;&lt;br&gt;&lt;/div&gt;" style="rounded=0;whiteSpace=wrap;html=1;" vertex="1" parent="YcwE7kRb64O2rknFhJXe-143">
          <mxGeometry width="43" height="70" as="geometry" />
        </mxCell>
        <mxCell id="YcwE7kRb64O2rknFhJXe-145" value="" style="triangle;whiteSpace=wrap;html=1;rotation=-90;" vertex="1" parent="YcwE7kRb64O2rknFhJXe-143">
          <mxGeometry x="10.25" y="37" width="22.5" height="43" as="geometry" />
        </mxCell>
        <mxCell id="YcwE7kRb64O2rknFhJXe-146" value="" style="group" vertex="1" connectable="0" parent="1">
          <mxGeometry x="1691" y="-23" width="43" height="70" as="geometry" />
        </mxCell>
        <mxCell id="YcwE7kRb64O2rknFhJXe-147" value="" style="group" vertex="1" connectable="0" parent="YcwE7kRb64O2rknFhJXe-146">
          <mxGeometry width="43" height="70" as="geometry" />
        </mxCell>
        <mxCell id="YcwE7kRb64O2rknFhJXe-148" value="PC&lt;div&gt;&lt;br&gt;&lt;/div&gt;" style="rounded=0;whiteSpace=wrap;html=1;" vertex="1" parent="YcwE7kRb64O2rknFhJXe-147">
          <mxGeometry width="43" height="70" as="geometry" />
        </mxCell>
        <mxCell id="YcwE7kRb64O2rknFhJXe-149" value="" style="triangle;whiteSpace=wrap;html=1;rotation=-90;" vertex="1" parent="YcwE7kRb64O2rknFhJXe-147">
          <mxGeometry x="10.25" y="37" width="22.5" height="43" as="geometry" />
        </mxCell>
        <mxCell id="YcwE7kRb64O2rknFhJXe-150" value="" style="group;fontSize=11;" vertex="1" connectable="0" parent="1">
          <mxGeometry x="1695" y="867" width="43" height="70" as="geometry" />
        </mxCell>
        <mxCell id="YcwE7kRb64O2rknFhJXe-151" value="" style="group" vertex="1" connectable="0" parent="YcwE7kRb64O2rknFhJXe-150">
          <mxGeometry width="43" height="70" as="geometry" />
        </mxCell>
        <mxCell id="YcwE7kRb64O2rknFhJXe-152" value="&lt;div style=&quot;&quot;&gt;&lt;span style=&quot;background-color: initial;&quot;&gt;tail&lt;/span&gt;&lt;/div&gt;&lt;div style=&quot;&quot;&gt;2&lt;/div&gt;&lt;div style=&quot;&quot;&gt;&lt;br&gt;&lt;/div&gt;" style="rounded=0;whiteSpace=wrap;html=1;" vertex="1" parent="YcwE7kRb64O2rknFhJXe-151">
          <mxGeometry width="43" height="70" as="geometry" />
        </mxCell>
        <mxCell id="YcwE7kRb64O2rknFhJXe-153" value="" style="triangle;whiteSpace=wrap;html=1;rotation=-90;" vertex="1" parent="YcwE7kRb64O2rknFhJXe-151">
          <mxGeometry x="10.25" y="37" width="22.5" height="43" as="geometry" />
        </mxCell>
        <mxCell id="YcwE7kRb64O2rknFhJXe-154" style="edgeStyle=orthogonalEdgeStyle;rounded=0;orthogonalLoop=1;jettySize=auto;html=1;entryX=0;entryY=0.25;entryDx=0;entryDy=0;" edge="1" parent="1" source="YcwE7kRb64O2rknFhJXe-148" target="YcwE7kRb64O2rknFhJXe-16">
          <mxGeometry relative="1" as="geometry" />
        </mxCell>
        <mxCell id="YcwE7kRb64O2rknFhJXe-155" style="edgeStyle=orthogonalEdgeStyle;rounded=0;orthogonalLoop=1;jettySize=auto;html=1;entryX=0.5;entryY=0;entryDx=0;entryDy=0;" edge="1" parent="1" source="YcwE7kRb64O2rknFhJXe-140" target="Ge6MpnjpsSB7cL12u8TX-48">
          <mxGeometry relative="1" as="geometry">
            <Array as="points">
              <mxPoint x="1776" y="523" />
              <mxPoint x="1776" y="451" />
              <mxPoint x="1934" y="451" />
            </Array>
          </mxGeometry>
        </mxCell>
        <mxCell id="YcwE7kRb64O2rknFhJXe-157" style="edgeStyle=orthogonalEdgeStyle;rounded=0;orthogonalLoop=1;jettySize=auto;html=1;entryX=0;entryY=0.5;entryDx=0;entryDy=0;" edge="1" parent="1" source="YcwE7kRb64O2rknFhJXe-136" target="Ge6MpnjpsSB7cL12u8TX-49">
          <mxGeometry relative="1" as="geometry" />
        </mxCell>
        <mxCell id="YcwE7kRb64O2rknFhJXe-158" style="edgeStyle=orthogonalEdgeStyle;rounded=0;orthogonalLoop=1;jettySize=auto;html=1;entryX=0;entryY=0.75;entryDx=0;entryDy=0;" edge="1" parent="1" source="YcwE7kRb64O2rknFhJXe-136" target="YcwE7kRb64O2rknFhJXe-16">
          <mxGeometry relative="1" as="geometry" />
        </mxCell>
        <mxCell id="YcwE7kRb64O2rknFhJXe-159" style="edgeStyle=orthogonalEdgeStyle;rounded=0;orthogonalLoop=1;jettySize=auto;html=1;" edge="1" parent="1" source="Ge6MpnjpsSB7cL12u8TX-23" target="YcwE7kRb64O2rknFhJXe-140">
          <mxGeometry relative="1" as="geometry" />
        </mxCell>
        <mxCell id="YcwE7kRb64O2rknFhJXe-160" style="edgeStyle=orthogonalEdgeStyle;rounded=0;orthogonalLoop=1;jettySize=auto;html=1;" edge="1" parent="1" source="e9a1FzbA3gTjQ1UGh1gj-102" target="YcwE7kRb64O2rknFhJXe-132">
          <mxGeometry relative="1" as="geometry" />
        </mxCell>
        <mxCell id="YcwE7kRb64O2rknFhJXe-161" style="edgeStyle=orthogonalEdgeStyle;rounded=0;orthogonalLoop=1;jettySize=auto;html=1;" edge="1" parent="1" source="e9a1FzbA3gTjQ1UGh1gj-98" target="YcwE7kRb64O2rknFhJXe-128">
          <mxGeometry relative="1" as="geometry" />
        </mxCell>
        <mxCell id="YcwE7kRb64O2rknFhJXe-162" style="edgeStyle=orthogonalEdgeStyle;rounded=0;orthogonalLoop=1;jettySize=auto;html=1;" edge="1" parent="1" source="e9a1FzbA3gTjQ1UGh1gj-94" target="YcwE7kRb64O2rknFhJXe-124">
          <mxGeometry relative="1" as="geometry" />
        </mxCell>
        <mxCell id="YcwE7kRb64O2rknFhJXe-163" style="edgeStyle=orthogonalEdgeStyle;rounded=0;orthogonalLoop=1;jettySize=auto;html=1;" edge="1" parent="1" source="e9a1FzbA3gTjQ1UGh1gj-90" target="YcwE7kRb64O2rknFhJXe-120">
          <mxGeometry relative="1" as="geometry" />
        </mxCell>
        <mxCell id="YcwE7kRb64O2rknFhJXe-164" style="edgeStyle=orthogonalEdgeStyle;rounded=0;orthogonalLoop=1;jettySize=auto;html=1;" edge="1" parent="1" source="YcwE7kRb64O2rknFhJXe-8" target="YcwE7kRb64O2rknFhJXe-148">
          <mxGeometry relative="1" as="geometry" />
        </mxCell>
        <mxCell id="YcwE7kRb64O2rknFhJXe-165" style="edgeStyle=orthogonalEdgeStyle;rounded=0;orthogonalLoop=1;jettySize=auto;html=1;" edge="1" parent="1" source="YcwE7kRb64O2rknFhJXe-148" target="YcwE7kRb64O2rknFhJXe-12">
          <mxGeometry relative="1" as="geometry" />
        </mxCell>
        <mxCell id="YcwE7kRb64O2rknFhJXe-166" style="edgeStyle=orthogonalEdgeStyle;rounded=0;orthogonalLoop=1;jettySize=auto;html=1;" edge="1" parent="1" source="YcwE7kRb64O2rknFhJXe-120" target="e9a1FzbA3gTjQ1UGh1gj-132">
          <mxGeometry relative="1" as="geometry" />
        </mxCell>
        <mxCell id="YcwE7kRb64O2rknFhJXe-167" style="edgeStyle=orthogonalEdgeStyle;rounded=0;orthogonalLoop=1;jettySize=auto;html=1;" edge="1" parent="1" source="YcwE7kRb64O2rknFhJXe-124" target="e9a1FzbA3gTjQ1UGh1gj-136">
          <mxGeometry relative="1" as="geometry" />
        </mxCell>
        <mxCell id="YcwE7kRb64O2rknFhJXe-178" value="" style="group" vertex="1" connectable="0" parent="1">
          <mxGeometry x="654" y="1215" width="222" height="21" as="geometry" />
        </mxCell>
        <mxCell id="YcwE7kRb64O2rknFhJXe-174" value="" style="group" vertex="1" connectable="0" parent="YcwE7kRb64O2rknFhJXe-178">
          <mxGeometry width="183" height="21" as="geometry" />
        </mxCell>
        <mxCell id="YcwE7kRb64O2rknFhJXe-177" value="" style="group" vertex="1" connectable="0" parent="YcwE7kRb64O2rknFhJXe-174">
          <mxGeometry width="183" height="21" as="geometry" />
        </mxCell>
        <mxCell id="YcwE7kRb64O2rknFhJXe-173" value="Pc" style="rounded=0;whiteSpace=wrap;html=1;" vertex="1" parent="YcwE7kRb64O2rknFhJXe-177">
          <mxGeometry x="144" width="39" height="21" as="geometry" />
        </mxCell>
        <mxCell id="YcwE7kRb64O2rknFhJXe-22" value="V" style="rounded=0;whiteSpace=wrap;html=1;" vertex="1" parent="YcwE7kRb64O2rknFhJXe-177">
          <mxGeometry width="27" height="21" as="geometry" />
        </mxCell>
        <mxCell id="YcwE7kRb64O2rknFhJXe-23" value="Exc" style="rounded=0;whiteSpace=wrap;html=1;" vertex="1" parent="YcwE7kRb64O2rknFhJXe-177">
          <mxGeometry x="27" width="39" height="21" as="geometry" />
        </mxCell>
        <mxCell id="YcwE7kRb64O2rknFhJXe-24" value="Reg" style="rounded=0;whiteSpace=wrap;html=1;" vertex="1" parent="YcwE7kRb64O2rknFhJXe-177">
          <mxGeometry x="66" width="39" height="21" as="geometry" />
        </mxCell>
        <mxCell id="YcwE7kRb64O2rknFhJXe-31" value="Val" style="rounded=0;whiteSpace=wrap;html=1;" vertex="1" parent="YcwE7kRb64O2rknFhJXe-177">
          <mxGeometry x="105" width="39" height="21" as="geometry" />
        </mxCell>
        <mxCell id="YcwE7kRb64O2rknFhJXe-175" value="i_s" style="rounded=0;whiteSpace=wrap;html=1;" vertex="1" parent="YcwE7kRb64O2rknFhJXe-178">
          <mxGeometry x="183" width="39" height="21" as="geometry" />
        </mxCell>
        <mxCell id="YcwE7kRb64O2rknFhJXe-179" value="&lt;font style=&quot;font-size: 30px;&quot;&gt;. . .&lt;/font&gt;" style="text;html=1;align=center;verticalAlign=middle;whiteSpace=wrap;rounded=0;rotation=90;" vertex="1" parent="1">
          <mxGeometry x="740" y="1266" width="60" height="30" as="geometry" />
        </mxCell>
        <mxCell id="YcwE7kRb64O2rknFhJXe-180" value="i_l" style="rounded=0;whiteSpace=wrap;html=1;" vertex="1" parent="1">
          <mxGeometry x="876" y="1215" width="39" height="21" as="geometry" />
        </mxCell>
        <mxCell id="YcwE7kRb64O2rknFhJXe-185" style="edgeStyle=orthogonalEdgeStyle;rounded=0;orthogonalLoop=1;jettySize=auto;html=1;entryX=0;entryY=0.5;entryDx=0;entryDy=0;exitX=0.997;exitY=0.833;exitDx=0;exitDy=0;exitPerimeter=0;" edge="1" parent="1" source="YcwE7kRb64O2rknFhJXe-184" target="YcwE7kRb64O2rknFhJXe-144">
          <mxGeometry relative="1" as="geometry" />
        </mxCell>
        <mxCell id="YcwE7kRb64O2rknFhJXe-184" value="&lt;b&gt;&lt;font style=&quot;font-size: 22px;&quot;&gt;ROB&lt;/font&gt;&lt;/b&gt;" style="rounded=0;whiteSpace=wrap;html=1;" vertex="1" parent="1">
          <mxGeometry x="1500" y="-10" width="153" height="996" as="geometry" />
        </mxCell>
        <mxCell id="YcwE7kRb64O2rknFhJXe-186" style="edgeStyle=orthogonalEdgeStyle;rounded=0;orthogonalLoop=1;jettySize=auto;html=1;entryX=0.023;entryY=0.917;entryDx=0;entryDy=0;entryPerimeter=0;" edge="1" parent="1" source="YcwE7kRb64O2rknFhJXe-102" target="YcwE7kRb64O2rknFhJXe-184">
          <mxGeometry relative="1" as="geometry" />
        </mxCell>
        <mxCell id="YcwE7kRb64O2rknFhJXe-187" style="edgeStyle=orthogonalEdgeStyle;rounded=0;orthogonalLoop=1;jettySize=auto;html=1;entryX=0;entryY=0.5;entryDx=0;entryDy=0;exitX=0.972;exitY=0.917;exitDx=0;exitDy=0;exitPerimeter=0;" edge="1" parent="1" source="YcwE7kRb64O2rknFhJXe-184" target="YcwE7kRb64O2rknFhJXe-152">
          <mxGeometry relative="1" as="geometry">
            <mxPoint x="1630" y="830" as="sourcePoint" />
            <mxPoint x="1707" y="829" as="targetPoint" />
          </mxGeometry>
        </mxCell>
        <mxCell id="YcwE7kRb64O2rknFhJXe-188" style="edgeStyle=orthogonalEdgeStyle;rounded=0;orthogonalLoop=1;jettySize=auto;html=1;entryX=0;entryY=0.5;entryDx=0;entryDy=0;" edge="1" parent="1" source="YcwE7kRb64O2rknFhJXe-152" target="YcwE7kRb64O2rknFhJXe-106">
          <mxGeometry relative="1" as="geometry" />
        </mxCell>
        <mxCell id="YcwE7kRb64O2rknFhJXe-189" value="" style="ellipse;whiteSpace=wrap;html=1;" vertex="1" parent="1">
          <mxGeometry x="511" y="1249" width="20" height="20" as="geometry" />
        </mxCell>
        <mxCell id="YcwE7kRb64O2rknFhJXe-190" value="id" style="text;html=1;align=left;verticalAlign=middle;whiteSpace=wrap;rounded=0;" vertex="1" parent="1">
          <mxGeometry x="539" y="1153" width="55" height="30" as="geometry" />
        </mxCell>
        <mxCell id="YcwE7kRb64O2rknFhJXe-192" style="edgeStyle=orthogonalEdgeStyle;rounded=0;orthogonalLoop=1;jettySize=auto;html=1;" edge="1" parent="1" source="wecIJHsFAUluWBLJBi0x-15" target="wecIJHsFAUluWBLJBi0x-11">
          <mxGeometry relative="1" as="geometry" />
        </mxCell>
        <mxCell id="YcwE7kRb64O2rknFhJXe-193" style="edgeStyle=orthogonalEdgeStyle;rounded=0;orthogonalLoop=1;jettySize=auto;html=1;" edge="1" parent="1" source="wecIJHsFAUluWBLJBi0x-11" target="wecIJHsFAUluWBLJBi0x-7">
          <mxGeometry relative="1" as="geometry" />
        </mxCell>
        <mxCell id="YcwE7kRb64O2rknFhJXe-200" value="" style="group;fontSize=11;" vertex="1" connectable="0" parent="1">
          <mxGeometry x="308" y="867" width="43" height="70" as="geometry" />
        </mxCell>
        <mxCell id="YcwE7kRb64O2rknFhJXe-201" value="" style="group" vertex="1" connectable="0" parent="YcwE7kRb64O2rknFhJXe-200">
          <mxGeometry width="43" height="70" as="geometry" />
        </mxCell>
        <mxCell id="YcwE7kRb64O2rknFhJXe-202" value="&lt;div style=&quot;&quot;&gt;tail_ctr&lt;/div&gt;&lt;div style=&quot;&quot;&gt;&lt;span style=&quot;background-color: initial;&quot;&gt;2&lt;/span&gt;&lt;/div&gt;&lt;div style=&quot;&quot;&gt;&lt;br&gt;&lt;/div&gt;" style="rounded=0;whiteSpace=wrap;html=1;" vertex="1" parent="YcwE7kRb64O2rknFhJXe-201">
          <mxGeometry width="43" height="70" as="geometry" />
        </mxCell>
        <mxCell id="YcwE7kRb64O2rknFhJXe-203" value="" style="triangle;whiteSpace=wrap;html=1;rotation=-90;" vertex="1" parent="YcwE7kRb64O2rknFhJXe-201">
          <mxGeometry x="10.25" y="37" width="22.5" height="43" as="geometry" />
        </mxCell>
        <mxCell id="YcwE7kRb64O2rknFhJXe-204" style="edgeStyle=orthogonalEdgeStyle;rounded=0;orthogonalLoop=1;jettySize=auto;html=1;entryX=0;entryY=0.5;entryDx=0;entryDy=0;" edge="1" parent="1" source="YcwE7kRb64O2rknFhJXe-202" target="YcwE7kRb64O2rknFhJXe-94">
          <mxGeometry relative="1" as="geometry" />
        </mxCell>
      </root>
    </mxGraphModel>
  </diagram>
</mxfile>
